<svg width="385" height="151" viewBox="0 0 385 151" fill="none" xmlns="http://www.w3.org/2000/svg">
<path d="M60.3266 10.0764H60.0601L59.9115 10.2977L1.25289 97.64L1.16797 97.7665V97.9188L1.16797 121.807V122.307H1.66797H60.38V149.66V150.16H60.88H86.1512H86.6512V149.66L86.6512 122.307H98.2334H98.7334V121.807V97.9188V97.4188H98.2334H86.6512V10.5764V10.0764H86.1512L60.3266 10.0764ZM30.8364 97.4188L60.38 54.0706L60.38 97.4188H30.8364Z" stroke="#FECC00"/>
<g clip-path="url(#clip0_723_6670)">
<circle cx="192.78" cy="75.1143" r="74.5459" fill="#1D3A49"/>
<path fill-rule="evenodd" clip-rule="evenodd" d="M193.329 29.2207C201.977 29.2207 210.432 31.7884 217.622 36.5992C224.813 41.4099 230.418 48.2477 233.728 56.2476C237.037 64.2476 237.903 73.0506 236.216 81.5434C234.529 90.0361 230.364 97.8372 224.249 103.96C218.133 110.083 210.342 114.253 201.86 115.942C193.377 117.631 184.585 116.764 176.595 113.451C168.605 110.137 161.776 104.525 156.971 97.3257C152.166 90.1259 149.602 81.6612 149.602 73.002C149.602 61.3905 154.209 50.2546 162.409 42.044C170.609 33.8334 181.732 29.2207 193.329 29.2207" fill="#FFCC00"/>
<path fill-rule="evenodd" clip-rule="evenodd" d="M193.329 29.2207C201.977 29.2207 210.432 31.7884 217.622 36.5992C224.813 41.4099 230.418 48.2477 233.728 56.2476C237.037 64.2476 237.903 73.0506 236.216 81.5434C234.529 90.0361 230.364 97.8372 224.249 103.96C218.133 110.083 210.342 114.253 201.86 115.942C193.377 117.631 184.585 116.764 176.595 113.451C168.605 110.137 161.776 104.525 156.971 97.3257C152.166 90.1259 149.602 81.6612 149.602 73.002C149.602 61.3905 154.209 50.2546 162.409 42.044C170.609 33.8334 181.732 29.2207 193.329 29.2207" fill="url(#paint0_linear_723_6670)"/>
<path d="M195.256 85.1934C221.709 85.1934 243.154 79.7502 243.154 73.0357C243.154 66.3211 221.709 60.8779 195.256 60.8779C168.802 60.8779 147.357 66.3211 147.357 73.0357C147.357 79.7502 168.802 85.1934 195.256 85.1934Z" stroke="#7D8C99" stroke-width="0.300736" stroke-miterlimit="22.93"/>
<path d="M197.63 86.753C226.214 86.753 249.385 80.6111 249.385 73.0348C249.385 65.4585 226.214 59.3166 197.63 59.3166C169.047 59.3166 145.875 65.4585 145.875 73.0348C145.875 80.6111 169.047 86.753 197.63 86.753Z" stroke="#7D8C99" stroke-width="0.300736" stroke-miterlimit="22.93"/>
<path d="M200.628 88.3254C231.695 88.3254 256.879 81.48 256.879 73.0356C256.879 64.5913 231.695 57.7458 200.628 57.7458C169.561 57.7458 144.377 64.5913 144.377 73.0356C144.377 81.48 169.561 88.3254 200.628 88.3254Z" stroke="#7D8C99" stroke-width="0.300736" stroke-miterlimit="22.93"/>
<path d="M203.751 55.8142C237.388 55.8142 264.633 63.5265 264.633 73.0349C264.633 82.5433 237.377 90.2443 203.751 90.2443C170.126 90.2443 142.881 82.5321 142.881 73.0012C142.881 63.4703 170.138 55.8142 203.751 55.8142Z" stroke="#7D8C99" stroke-width="0.300736" stroke-miterlimit="22.93"/>
<path d="M208.051 92.153C244.765 92.153 274.528 83.6389 274.528 73.1362C274.528 62.6335 244.765 54.1194 208.051 54.1194C171.337 54.1194 141.574 62.6335 141.574 73.1362C141.574 83.6389 171.337 92.153 208.051 92.153Z" stroke="#7D8C99" stroke-width="0.300736" stroke-miterlimit="22.93"/>
<path d="M213.211 94.5778C253.696 94.5778 286.516 84.9328 286.516 73.0351C286.516 61.1374 253.696 51.4924 213.211 51.4924C172.726 51.4924 139.906 61.1374 139.906 73.0351C139.906 84.9328 172.726 94.5778 213.211 94.5778Z" stroke="#7D8C99" stroke-width="0.300736" stroke-miterlimit="22.93"/>
<path d="M217.725 96.9916C261.529 96.9916 297.039 86.266 297.039 73.0353C297.039 59.8047 261.529 49.0791 217.725 49.0791C173.92 49.0791 138.41 59.8047 138.41 73.0354C138.41 86.266 173.92 96.9916 217.725 96.9916Z" stroke="#7D8C99" stroke-width="0.300736" stroke-miterlimit="22.93"/>
<path d="M221.44 99.6289C268.124 99.6289 305.968 87.7222 305.968 73.0345C305.968 58.3469 268.124 46.4402 221.44 46.4402C174.757 46.4402 136.912 58.3469 136.912 73.0345C136.912 87.7222 174.757 99.6289 221.44 99.6289Z" stroke="#7D8C99" stroke-width="0.300736" stroke-miterlimit="22.93"/>
<path d="M223.854 102.28C272.687 102.28 312.273 89.1873 312.273 73.0364C312.273 56.8856 272.687 43.7927 223.854 43.7927C175.022 43.7927 135.436 56.8856 135.436 73.0364C135.436 89.1873 175.022 102.28 223.854 102.28Z" stroke="#7D8C99" stroke-width="0.300736" stroke-miterlimit="22.93"/>
<path fill-rule="evenodd" clip-rule="evenodd" d="M193.329 29.2207C204.926 29.2207 216.048 33.8334 224.249 42.044C232.449 50.2546 237.056 61.3905 237.056 73.002C237.056 73.1929 237.056 73.395 237.056 73.597L149.602 73.597C149.602 73.395 149.602 73.1929 149.602 73.002C149.602 61.3905 154.209 50.2546 162.409 42.044C170.609 33.8334 181.732 29.2207 193.329 29.2207" fill="#FFCC00"/>
<path fill-rule="evenodd" clip-rule="evenodd" d="M193.329 29.2207C204.926 29.2207 216.048 33.8334 224.249 42.044C232.449 50.2546 237.056 61.3905 237.056 73.002C237.056 73.1929 237.056 73.395 237.056 73.597L149.602 73.597C149.602 73.395 149.602 73.1929 149.602 73.002C149.602 61.3905 154.209 50.2546 162.409 42.044C170.609 33.8334 181.732 29.2207 193.329 29.2207" fill="url(#paint1_linear_723_6670)"/>
<path fill-rule="evenodd" clip-rule="evenodd" d="M256.881 69.3992C257.601 69.3992 258.305 69.6134 258.903 70.0146C259.501 70.4157 259.966 70.9858 260.24 71.6524C260.514 72.3189 260.584 73.052 260.441 73.7584C260.298 74.4649 259.949 75.1129 259.438 75.6202C258.926 76.1275 258.276 76.4712 257.569 76.6078C256.862 76.7443 256.13 76.6674 255.467 76.387C254.804 76.1065 254.239 75.6351 253.844 75.0325C253.449 74.43 253.242 73.7235 253.248 73.0027C253.248 72.038 253.631 71.1129 254.312 70.4308C254.993 69.7487 255.917 69.3655 256.881 69.3655" fill="#010E12"/>
<path fill-rule="evenodd" clip-rule="evenodd" d="M256.881 69.3992C257.601 69.3992 258.305 69.6134 258.903 70.0146C259.501 70.4157 259.966 70.9858 260.24 71.6524C260.514 72.3189 260.584 73.052 260.441 73.7584C260.298 74.4649 259.949 75.1129 259.438 75.6202C258.926 76.1275 258.276 76.4712 257.569 76.6078C256.862 76.7443 256.13 76.6674 255.467 76.387C254.804 76.1065 254.239 75.6351 253.844 75.0325C253.449 74.43 253.242 73.7235 253.248 73.0027C253.248 72.038 253.631 71.1129 254.312 70.4308C254.993 69.7487 255.917 69.3655 256.881 69.3655" fill="url(#paint2_linear_723_6670)"/>
<path fill-rule="evenodd" clip-rule="evenodd" d="M264.638 69.7793C265.281 69.7793 265.91 69.9702 266.445 70.328C266.979 70.6857 267.396 71.1941 267.642 71.789C267.888 72.3839 267.953 73.0385 267.827 73.67C267.702 74.3015 267.392 74.8816 266.937 75.3369C266.483 75.7922 265.903 76.1022 265.273 76.2278C264.642 76.3534 263.988 76.289 263.394 76.0426C262.8 75.7962 262.292 75.3789 261.935 74.8435C261.577 74.3082 261.387 73.6787 261.387 73.0348C261.385 72.6069 261.468 72.1829 261.631 71.7873C261.794 71.3916 262.034 71.0321 262.336 70.7295C262.638 70.4269 262.997 70.1872 263.392 70.0241C263.787 69.861 264.211 69.7778 264.638 69.7793" fill="#010E12"/>
<path fill-rule="evenodd" clip-rule="evenodd" d="M264.638 69.7793C265.281 69.7793 265.91 69.9702 266.445 70.328C266.979 70.6857 267.396 71.1941 267.642 71.789C267.888 72.3839 267.953 73.0385 267.827 73.67C267.702 74.3015 267.392 74.8816 266.937 75.3369C266.483 75.7922 265.903 76.1022 265.273 76.2278C264.642 76.3534 263.988 76.289 263.394 76.0426C262.8 75.7962 262.292 75.3789 261.935 74.8435C261.577 74.3082 261.387 73.6787 261.387 73.0348C261.385 72.6069 261.468 72.1829 261.631 71.7873C261.794 71.3916 262.034 71.0321 262.336 70.7295C262.638 70.4269 262.997 70.1872 263.392 70.0241C263.787 69.861 264.211 69.7778 264.638 69.7793" fill="url(#paint3_linear_723_6670)"/>
<path fill-rule="evenodd" clip-rule="evenodd" d="M243.155 70.5874C243.64 70.5874 244.114 70.7319 244.517 71.0023C244.919 71.2727 245.233 71.6569 245.417 72.1061C245.601 72.5552 245.647 73.049 245.55 73.5246C245.453 74.0002 245.217 74.4362 244.871 74.7771C244.526 75.118 244.088 75.3483 243.611 75.4389C243.135 75.5295 242.642 75.4762 242.196 75.2858C241.751 75.0954 241.371 74.7765 241.107 74.3697C240.842 73.9628 240.704 73.4864 240.711 73.001C240.711 72.3519 240.969 71.7295 241.427 71.2705C241.885 70.8115 242.507 70.5537 243.155 70.5537" fill="#010E12"/>
<path fill-rule="evenodd" clip-rule="evenodd" d="M243.155 70.5874C243.64 70.5874 244.114 70.7319 244.517 71.0023C244.919 71.2727 245.233 71.6569 245.417 72.1061C245.601 72.5552 245.647 73.049 245.55 73.5246C245.453 74.0002 245.217 74.4362 244.871 74.7771C244.526 75.118 244.088 75.3483 243.611 75.4389C243.135 75.5295 242.642 75.4762 242.196 75.2858C241.751 75.0954 241.371 74.7765 241.107 74.3697C240.842 73.9628 240.704 73.4864 240.711 73.001C240.711 72.3519 240.969 71.7295 241.427 71.2705C241.885 70.8115 242.507 70.5537 243.155 70.5537" fill="url(#paint4_linear_723_6670)"/>
<path fill-rule="evenodd" clip-rule="evenodd" d="M249.389 70.083C249.974 70.0808 250.547 70.2529 251.034 70.5775C251.521 70.9021 251.9 71.3644 252.124 71.9057C252.348 72.4469 252.406 73.0427 252.291 73.617C252.176 74.1914 251.892 74.7184 251.477 75.1311C251.062 75.5437 250.533 75.8234 249.959 75.9344C249.384 76.0454 248.79 75.9827 248.251 75.7544C247.712 75.5261 247.253 75.1425 246.933 74.6523C246.612 74.1621 246.445 73.5876 246.451 73.0018C246.45 72.6146 246.525 72.2309 246.672 71.8728C246.819 71.5146 247.035 71.189 247.308 70.9147C247.581 70.6404 247.905 70.4228 248.262 70.2743C248.619 70.1258 249.002 70.0493 249.389 70.0493" fill="#010E12"/>
<path fill-rule="evenodd" clip-rule="evenodd" d="M249.389 70.083C249.974 70.0808 250.547 70.2529 251.034 70.5775C251.521 70.9021 251.9 71.3644 252.124 71.9057C252.348 72.4469 252.406 73.0427 252.291 73.617C252.176 74.1914 251.892 74.7184 251.477 75.1311C251.062 75.5437 250.533 75.8234 249.959 75.9344C249.384 76.0454 248.79 75.9827 248.251 75.7544C247.712 75.5261 247.253 75.1425 246.933 74.6523C246.612 74.1621 246.445 73.5876 246.451 73.0018C246.45 72.6146 246.525 72.2309 246.672 71.8728C246.819 71.5146 247.035 71.189 247.308 70.9147C247.581 70.6404 247.905 70.4228 248.262 70.2743C248.619 70.1258 249.002 70.0493 249.389 70.0493" fill="url(#paint5_linear_723_6670)"/>
</g>
<path d="M345.985 10.0764H345.718L345.57 10.2977L286.911 97.64L286.826 97.7665V97.9188V121.807V122.307H287.326H346.038V149.66V150.16H346.538H371.809H372.309V149.66V122.307H383.892H384.392V121.807V97.9188V97.4188H383.892H372.309V10.5764V10.0764H371.809L345.985 10.0764ZM316.495 97.4188L346.038 54.0706V97.4188H316.495Z" stroke="#FECC00"/>
<defs>
<linearGradient id="paint0_linear_723_6670" x1="149.602" y1="29.2207" x2="213.472" y2="131.51" gradientUnits="userSpaceOnUse">
<stop stop-color="white" stop-opacity="0.4"/>
<stop offset="0.0001" stop-color="white" stop-opacity="0.4"/>
<stop offset="1" stop-color="white" stop-opacity="0"/>
</linearGradient>
<linearGradient id="paint1_linear_723_6670" x1="100.552" y1="70.7039" x2="187.082" y2="166.402" gradientUnits="userSpaceOnUse">
<stop stop-color="white" stop-opacity="0.4"/>
<stop offset="0.0001" stop-color="white" stop-opacity="0.4"/>
<stop offset="1" stop-color="white" stop-opacity="0"/>
</linearGradient>
<linearGradient id="paint2_linear_723_6670" x1="253.248" y1="69.3655" x2="258.59" y2="77.8805" gradientUnits="userSpaceOnUse">
<stop stop-color="white" stop-opacity="0.4"/>
<stop offset="0.0001" stop-color="white" stop-opacity="0.4"/>
<stop offset="1" stop-color="white" stop-opacity="0"/>
</linearGradient>
<linearGradient id="paint3_linear_723_6670" x1="261.387" y1="69.7793" x2="266.136" y2="77.3854" gradientUnits="userSpaceOnUse">
<stop stop-color="white" stop-opacity="0.4"/>
<stop offset="0.0001" stop-color="white" stop-opacity="0.4"/>
<stop offset="1" stop-color="white" stop-opacity="0"/>
</linearGradient>
<linearGradient id="paint4_linear_723_6670" x1="240.711" y1="70.5537" x2="244.316" y2="76.2885" gradientUnits="userSpaceOnUse">
<stop stop-color="white" stop-opacity="0.4"/>
<stop offset="0.0001" stop-color="white" stop-opacity="0.4"/>
<stop offset="1" stop-color="white" stop-opacity="0"/>
</linearGradient>
<linearGradient id="paint5_linear_723_6670" x1="246.451" y1="70.0493" x2="250.794" y2="76.9644" gradientUnits="userSpaceOnUse">
<stop stop-color="white" stop-opacity="0.4"/>
<stop offset="0.0001" stop-color="white" stop-opacity="0.4"/>
<stop offset="1" stop-color="white" stop-opacity="0"/>
</linearGradient>
<clipPath id="clip0_723_6670">
<rect x="118.234" y="0.568359" width="149.092" height="149.092" rx="74.5459" fill="white"/>
</clipPath>
</defs>
</svg>
