<svg width="40" height="40" viewBox="0 0 40 40" fill="none" xmlns="http://www.w3.org/2000/svg">
<circle cx="20" cy="20" r="20" fill="#FECC00"/>
<path d="M26.6849 28.4058H13.9313C13.7775 28.4058 13.6301 28.4669 13.5214 28.5756C13.4126 28.6843 13.3516 28.8318 13.3516 28.9855C13.3516 29.1393 13.4126 29.2867 13.5214 29.3955C13.6301 29.5042 13.7775 29.5653 13.9313 29.5653H26.6849C26.8386 29.5653 26.9861 29.5042 27.0948 29.3955C27.2035 29.2867 27.2646 29.1393 27.2646 28.9855C27.2646 28.8318 27.2035 28.6843 27.0948 28.5756C26.9861 28.4669 26.8386 28.4058 26.6849 28.4058Z" fill="#262626"/>
<path d="M13.9313 12.1739H23.2704C23.3844 11.7642 23.5582 11.3735 23.7863 11.0145H13.9313C13.7775 11.0145 13.6301 11.0756 13.5214 11.1843C13.4126 11.293 13.3516 11.4405 13.3516 11.5942C13.3516 11.748 13.4126 11.8954 13.5214 12.0042C13.6301 12.1129 13.7775 12.1739 13.9313 12.1739Z" fill="#262626"/>
<path d="M23.1371 21.6058C22.627 21.192 22.0586 20.856 21.4501 20.6087V19.9363C22.0586 19.689 22.627 19.353 23.1371 18.9392C23.5193 18.6541 23.8416 18.2964 24.0853 17.8865C24.329 17.4767 24.4894 17.0227 24.5574 16.5508C24.1035 16.1463 23.7398 15.6507 23.4901 15.0964C23.2404 14.542 23.1103 13.9413 23.1081 13.3334H15.8965V16.3015C15.9246 16.8186 16.0664 17.3231 16.3119 17.779C16.5574 18.235 16.9005 18.6311 17.3168 18.9392C17.8268 19.353 18.3953 19.689 19.0037 19.9363V20.6087C18.3953 20.856 17.8268 21.192 17.3168 21.6058C16.9005 21.9139 16.5574 22.31 16.3119 22.766C16.0664 23.2219 15.9246 23.7264 15.8965 24.2435V27.2116H24.5574V24.2435C24.5293 23.7264 24.3874 23.2219 24.1419 22.766C23.8964 22.31 23.5533 21.9139 23.1371 21.6058Z" fill="#262626"/>
<path d="M27.4559 16.2319C29.0567 16.2319 30.3545 14.9342 30.3545 13.3334C30.3545 11.7325 29.0567 10.4348 27.4559 10.4348C25.8551 10.4348 24.5574 11.7325 24.5574 13.3334C24.5574 14.9342 25.8551 16.2319 27.4559 16.2319Z" fill="#262626"/>
</svg>
