<svg width="40" height="40" viewBox="0 0 40 40" fill="none" xmlns="http://www.w3.org/2000/svg">
<circle cx="20" cy="20" r="20" fill="#FECC00"/>
<path d="M14.5646 13.6233C13.7409 13.6233 12.951 13.9505 12.3686 14.5329C11.7862 15.1153 11.459 15.9052 11.459 16.7289V17.35H28.8503V16.7289C28.8503 15.9052 28.5231 15.1153 27.9407 14.5329C27.3583 13.9505 26.5684 13.6233 25.7447 13.6233H14.5646ZM28.8503 18.5922H11.459V22.9401C11.459 23.7637 11.7862 24.5536 12.3686 25.136C12.951 25.7185 13.7409 26.0457 14.5646 26.0457H25.7447C26.5684 26.0457 27.3583 25.7185 27.9407 25.136C28.5231 24.5536 28.8503 23.7637 28.8503 22.9401V18.5922ZM23.2602 22.3189H25.7447C25.9094 22.3189 26.0674 22.3844 26.1839 22.5009C26.3004 22.6173 26.3658 22.7753 26.3658 22.9401C26.3658 23.1048 26.3004 23.2628 26.1839 23.3793C26.0674 23.4957 25.9094 23.5612 25.7447 23.5612H23.2602C23.0955 23.5612 22.9375 23.4957 22.821 23.3793C22.7045 23.2628 22.6391 23.1048 22.6391 22.9401C22.6391 22.7753 22.7045 22.6173 22.821 22.5009C22.9375 22.3844 23.0955 22.3189 23.2602 22.3189Z" fill="#262626"/>
</svg>
