<svg width="40" height="40" viewBox="0 0 40 40" fill="none" xmlns="http://www.w3.org/2000/svg">
<circle cx="20" cy="20" r="20" fill="#FECC00"/>
<path d="M27.5744 13.8506C25.603 11.891 22.9472 10.7742 20.1678 10.7361C17.3884 10.698 14.703 11.7416 12.6787 13.6464C10.6543 15.5512 9.44946 18.1682 9.31854 20.9448C9.18762 23.7213 10.1409 26.4401 11.977 28.5269L11.9851 28.5359C11.9998 28.5515 12.0136 28.5676 12.0297 28.5827C12.0627 28.6202 12.1002 28.6626 12.1444 28.7068C12.3178 28.8911 12.5273 29.0375 12.7598 29.1371C12.9923 29.2366 13.2429 29.2871 13.4959 29.2853C13.7488 29.2836 13.9986 29.2296 14.2298 29.1268C14.4609 29.0241 14.6683 28.8747 14.8391 28.6881C15.4961 27.9741 16.2941 27.4041 17.1826 27.0142C18.0711 26.6244 19.0308 26.4231 20.0011 26.4231C20.9714 26.4231 21.9312 26.6244 22.8197 27.0142C23.7082 27.4041 24.5062 27.9741 25.1632 28.6881C25.3352 28.8757 25.5443 29.0255 25.7772 29.1281C26.0102 29.2307 26.2619 29.2838 26.5164 29.2841C26.7709 29.2843 27.0227 29.2317 27.2559 29.1296C27.489 29.0275 27.6984 28.878 27.8708 28.6908L28.0141 28.5345L28.0221 28.5256C29.8313 26.4827 30.7925 23.8263 30.7095 21.0987C30.6266 18.3711 29.5057 15.778 27.5757 13.8488L27.5744 13.8506ZM19.2842 14.2859C19.2842 14.0964 19.3594 13.9147 19.4934 13.7808C19.6273 13.6468 19.809 13.5716 19.9985 13.5716C20.1879 13.5716 20.3696 13.6468 20.5035 13.7808C20.6375 13.9147 20.7127 14.0964 20.7127 14.2859V15.7144C20.7127 15.9039 20.6375 16.0856 20.5035 16.2195C20.3696 16.3535 20.1879 16.4287 19.9985 16.4287C19.809 16.4287 19.6273 16.3535 19.4934 16.2195C19.3594 16.0856 19.2842 15.9039 19.2842 15.7144V14.2859ZM14.2842 22.143H12.8556C12.6662 22.143 12.4845 22.0677 12.3505 21.9338C12.2166 21.7998 12.1413 21.6182 12.1413 21.4287C12.1413 21.2393 12.2166 21.0576 12.3505 20.9236C12.4845 20.7897 12.6662 20.7144 12.8556 20.7144H14.2842C14.4736 20.7144 14.6553 20.7897 14.7893 20.9236C14.9232 21.0576 14.9985 21.2393 14.9985 21.4287C14.9985 21.6182 14.9232 21.7998 14.7893 21.9338C14.6553 22.0677 14.4736 22.143 14.2842 22.143V22.143ZM16.4627 17.893C16.3288 18.0269 16.1472 18.102 15.9578 18.102C15.7685 18.102 15.5869 18.0269 15.4529 17.893L14.4427 16.8832C14.3087 16.7492 14.2334 16.5675 14.2334 16.378C14.2334 16.1886 14.3087 16.0069 14.4427 15.8729C14.5766 15.7389 14.7583 15.6637 14.9478 15.6637C15.1373 15.6637 15.319 15.7389 15.4529 15.8729L16.4627 16.8832C16.5966 17.0171 16.6718 17.1987 16.6718 17.3881C16.6718 17.5774 16.5966 17.7591 16.4627 17.893V17.893ZM23.1279 18.9242L21.0074 22.2948C20.9206 22.415 20.8151 22.5205 20.6949 22.6073C20.4046 22.8098 20.0462 22.8896 19.6974 22.8295C19.3487 22.7694 19.0377 22.5741 18.832 22.2861C18.6263 21.9982 18.5424 21.6407 18.5987 21.2912C18.6549 20.9418 18.8467 20.6287 19.1324 20.4198L22.5029 18.2992C22.5795 18.2458 22.6707 18.2172 22.7641 18.2172C22.8575 18.2172 22.9486 18.2458 23.0252 18.2992C23.1215 18.3687 23.1863 18.4735 23.2055 18.5906C23.2248 18.7077 23.1969 18.8276 23.1279 18.9242ZM24.544 17.893C24.409 18.0213 24.2291 18.0918 24.0429 18.0894C23.8566 18.087 23.6787 18.0119 23.5469 17.8802C23.4152 17.7485 23.3402 17.5706 23.3378 17.3843C23.3354 17.198 23.4059 17.0182 23.5342 16.8832L24.544 15.8729C24.678 15.7389 24.8597 15.6637 25.0491 15.6637C25.2386 15.6637 25.4203 15.7389 25.5543 15.8729C25.6882 16.0069 25.7635 16.1886 25.7635 16.378C25.7635 16.5675 25.6882 16.7492 25.5543 16.8832L24.544 17.893ZM27.1413 22.143H25.7127C25.5233 22.143 25.3416 22.0677 25.2077 21.9338C25.0737 21.7998 24.9985 21.6182 24.9985 21.4287C24.9985 21.2393 25.0737 21.0576 25.2077 20.9236C25.3416 20.7897 25.5233 20.7144 25.7127 20.7144H27.1413C27.3308 20.7144 27.5124 20.7897 27.6464 20.9236C27.7804 21.0576 27.8556 21.2393 27.8556 21.4287C27.8556 21.6182 27.7804 21.7998 27.6464 21.9338C27.5124 22.0677 27.3308 22.143 27.1413 22.143Z" fill="#262626"/>
</svg>
