<svg width="404" height="299" viewBox="0 0 404 299" fill="none" xmlns="http://www.w3.org/2000/svg">
<path d="M276.869 106.197C300.875 147.758 286.83 200.785 245.499 224.637C204.169 248.489 151.203 234.133 127.197 192.572C103.191 151.011 117.237 97.9834 158.567 74.1317C199.898 50.28 252.863 64.6352 276.869 106.197Z" fill="white"/>
<path d="M276.869 106.197C300.875 147.758 286.83 200.785 245.499 224.637C204.169 248.489 151.203 234.133 127.197 192.572C103.191 151.011 117.237 97.9834 158.567 74.1317C199.898 50.28 252.863 64.6352 276.869 106.197Z" stroke="white" stroke-width="0.192686"/>
<path d="M276.869 106.197C300.875 147.758 286.83 200.785 245.499 224.637C204.169 248.489 151.203 234.133 127.197 192.572C103.191 151.011 117.237 97.9834 158.567 74.1317C199.898 50.28 252.863 64.6352 276.869 106.197Z" stroke="url(#paint0_linear_508_6177)" stroke-opacity="0.2" stroke-width="0.192686"/>
<path d="M220.691 188.106C178.136 212.665 137.802 231.743 106.998 242.738C91.5912 248.236 78.5922 251.705 68.901 252.834C64.0534 253.398 60.0638 253.374 57.0262 252.742C53.9861 252.11 51.9717 250.888 50.9493 249.118C49.9269 247.347 49.8748 244.992 50.8473 242.045C51.8191 239.1 53.7926 235.634 56.7056 231.72C62.5292 223.895 72.0337 214.377 84.501 203.79C109.429 182.621 146.126 157.245 188.681 132.687C231.236 108.128 271.569 89.0502 302.374 78.0554C317.781 72.5565 330.78 69.0882 340.471 67.9594C345.318 67.3948 349.308 67.4194 352.346 68.0508C355.386 68.6827 357.4 69.9053 358.422 71.6754C359.445 73.4455 359.497 75.8006 358.524 78.7482C357.553 81.6934 355.579 85.1593 352.666 89.0733C346.843 96.898 337.338 106.416 324.871 117.003C299.942 138.172 263.246 163.548 220.691 188.106Z" stroke="url(#paint1_linear_508_6177)"/>
<circle cx="107.561" cy="241.879" r="6.50001" transform="rotate(-15 107.561 241.879)" fill="url(#paint2_linear_508_6177)"/>
<path d="M272.738 104.385C261.926 85.6674 243.847 72.1667 222.477 66.8524C201.107 61.5382 178.197 64.8457 158.787 76.0474C139.376 87.2492 125.056 105.428 118.975 126.583C112.894 147.739 115.552 170.14 126.363 188.857L199.55 146.621L272.738 104.385Z" fill="white"/>
<defs>
<linearGradient id="paint0_linear_508_6177" x1="342.73" y1="204.655" x2="113.249" y2="33.4357" gradientUnits="userSpaceOnUse">
<stop stop-color="#003042"/>
<stop offset="1" stop-color="#003042" stop-opacity="0"/>
</linearGradient>
<linearGradient id="paint1_linear_508_6177" x1="973.683" y1="-346.978" x2="551.32" y2="-682.548" gradientUnits="userSpaceOnUse">
<stop stop-color="#AEBDCB"/>
<stop offset="1" stop-color="#AEBDCB" stop-opacity="0"/>
</linearGradient>
<linearGradient id="paint2_linear_508_6177" x1="92.5998" y1="232.903" x2="112.611" y2="226.152" gradientUnits="userSpaceOnUse">
<stop stop-color="#FECA0A"/>
<stop offset="1" stop-color="#FECA0A" stop-opacity="0"/>
</linearGradient>
</defs>
</svg>
