<svg width="24" height="24" viewBox="0 0 24 24" fill="none" xmlns="http://www.w3.org/2000/svg">
<path d="M15.4845 19.0481C14.8566 19.676 13.8385 19.676 13.2105 19.0481L7.16511 13.0027C6.53715 12.3747 6.53715 11.3566 7.16511 10.7286C7.79308 10.1007 8.81121 10.1007 9.43917 10.7286L15.4845 16.774C16.1125 17.402 16.1125 18.4201 15.4845 19.0481Z" fill="#FECC00"/>
<path d="M15.5607 4.43938C16.1464 5.02517 16.1464 5.97492 15.5607 6.5607L9.1967 12.9247C8.61091 13.5104 7.66117 13.5104 7.07538 12.9247C6.48959 12.3389 6.48959 11.3891 7.07538 10.8033L13.4393 4.43938C14.0251 3.8536 14.9749 3.8536 15.5607 4.43938Z" fill="#FECC00"/>
</svg>
