<svg width="24" height="24" viewBox="0 0 24 24" fill="none" xmlns="http://www.w3.org/2000/svg">
<g clip-path="url(#clip0_506_3405)">
<circle cx="12" cy="12" r="12" fill="#262626"/>
<path fill-rule="evenodd" clip-rule="evenodd" d="M0.0182004 12.6666C0.00611973 12.4459 0 12.2237 0 12C0 11.7763 0.00611973 11.5541 0.0182004 11.3334H12.6823L8.41164 7.13935C8.28423 7.01418 8.21265 6.84442 8.21265 6.66742C8.21265 6.49041 8.28423 6.32065 8.41164 6.19548C8.53905 6.07032 8.71185 6 8.89203 6C9.07222 6 9.24502 6.07032 9.37243 6.19548L14.8007 11.5281C14.8638 11.59 14.914 11.6635 14.9482 11.7445C14.9824 11.8255 15 11.9123 15 12C15 12.0877 14.9824 12.1745 14.9482 12.2555C14.914 12.3365 14.8638 12.41 14.8007 12.4719L9.37243 17.8045C9.24502 17.9297 9.07222 18 8.89203 18C8.71185 18 8.53905 17.9297 8.41164 17.8045C8.28423 17.6794 8.21265 17.5096 8.21265 17.3326C8.21265 17.1556 8.28423 16.9858 8.41164 16.8607L12.6823 12.6666H0.0182004Z" fill="#FECC00"/>
</g>
<defs>
<clipPath id="clip0_506_3405">
<rect width="24" height="24" fill="white"/>
</clipPath>
</defs>
</svg>
