<svg width="24" height="24" viewBox="0 0 24 24" fill="none" xmlns="http://www.w3.org/2000/svg">
<g clip-path="url(#clip0_506_3405)">
<circle cx="12" cy="12" r="12" transform="rotate(90 12 12)" fill="#262626"/>
<path fill-rule="evenodd" clip-rule="evenodd" d="M11.3334 0.0182002C11.5541 0.00611931 11.7763 -2.72045e-07 12 -2.62268e-07C12.2237 -2.52491e-07 12.4459 0.00611934 12.6666 0.0182002L12.6666 12.6823L16.8607 8.41164C16.9858 8.28423 17.1556 8.21265 17.3326 8.21265C17.5096 8.21265 17.6794 8.28423 17.8045 8.41164C17.9297 8.53905 18 8.71185 18 8.89203C18 9.07222 17.9297 9.24502 17.8045 9.37243L12.4719 14.8007C12.41 14.8638 12.3365 14.914 12.2555 14.9482C12.1745 14.9824 12.0877 15 12 15C11.9123 15 11.8255 14.9824 11.7445 14.9482C11.6635 14.914 11.59 14.8638 11.5281 14.8007L6.19548 9.37243C6.07032 9.24502 6 9.07222 6 8.89203C6 8.71185 6.07032 8.53905 6.19548 8.41164C6.32064 8.28423 6.4904 8.21265 6.66741 8.21265C6.84442 8.21265 7.01418 8.28423 7.13935 8.41164L11.3334 12.6823L11.3334 0.0182002Z" fill="#FECC00"/>
</g>
<defs>
<clipPath id="clip0_506_3405">
<rect width="24" height="24" fill="white" transform="translate(24) rotate(90)"/>
</clipPath>
</defs>
</svg>
