<svg width="24" height="24" viewBox="0 0 24 24" fill="none" xmlns="http://www.w3.org/2000/svg">
<g clip-path="url(#clip0_508_3194)">
<circle cx="12" cy="12" r="12" fill="white"/>
<g clip-path="url(#clip1_508_3194)">
<path fill-rule="evenodd" clip-rule="evenodd" d="M-4 12C-4 11.8232 -3.92851 11.6537 -3.80126 11.5287C-3.67402 11.4037 -3.50143 11.3334 -3.32147 11.3334H12.6823L8.41164 7.13935C8.28423 7.01418 8.21265 6.84442 8.21265 6.66742C8.21265 6.49041 8.28423 6.32065 8.41164 6.19548C8.53905 6.07032 8.71185 6 8.89203 6C9.07222 6 9.24502 6.07032 9.37243 6.19548L14.8007 11.5281C14.8638 11.59 14.914 11.6635 14.9482 11.7445C14.9824 11.8255 15 11.9123 15 12C15 12.0877 14.9824 12.1745 14.9482 12.2555C14.914 12.3365 14.8638 12.41 14.8007 12.4719L9.37243 17.8045C9.24502 17.9297 9.07222 18 8.89203 18C8.71185 18 8.53905 17.9297 8.41164 17.8045C8.28423 17.6794 8.21265 17.5096 8.21265 17.3326C8.21265 17.1556 8.28423 16.9858 8.41164 16.8607L12.6823 12.6666H-3.32147C-3.50143 12.6666 -3.67402 12.5963 -3.80126 12.4713C-3.92851 12.3463 -4 12.1768 -4 12V12Z" fill="#003042"/>
</g>
</g>
<defs>
<clipPath id="clip0_508_3194">
<rect width="24" height="24" fill="white"/>
</clipPath>
<clipPath id="clip1_508_3194">
<rect width="15" height="16" fill="white" transform="translate(0 4)"/>
</clipPath>
</defs>
</svg>
