<svg width="24" height="24" viewBox="0 0 24 24" fill="none" xmlns="http://www.w3.org/2000/svg">
<path d="M7.51545 19.529C8.14342 20.157 9.16155 20.157 9.78951 19.529L15.8349 13.4837C16.4629 12.8557 16.4629 11.8376 15.8349 11.2096C15.2069 10.5816 14.1888 10.5816 13.5608 11.2096L7.51545 17.255C6.88749 17.8829 6.88749 18.9011 7.51545 19.529Z" fill="#FECC00"/>
<path d="M7.43934 4.92034C6.85355 5.50613 6.85355 6.45587 7.43934 7.04166L13.8033 13.4056C14.3891 13.9914 15.3388 13.9914 15.9246 13.4056C16.5104 12.8198 16.5104 11.8701 15.9246 11.2843L9.56066 4.92034C8.97487 4.33455 8.02512 4.33455 7.43934 4.92034Z" fill="#FECC00"/>
</svg>
