<svg width="26" height="25" viewBox="0 0 26 25" fill="none" xmlns="http://www.w3.org/2000/svg">
<g clip-path="url(#clip0_504_3827)">
<circle cx="12.5039" cy="12.5" r="12.5" fill="#FECC00"/>
<path d="M18.042 7.14064C18.042 7.14064 19.4295 6.59957 19.3134 7.91348C19.2752 8.45454 18.9284 10.3484 18.6584 12.3966L17.7334 18.4644C17.7334 18.4644 17.6563 19.3533 16.9624 19.508C16.2688 19.6622 15.2281 18.9669 15.0353 18.8123C14.881 18.6962 12.1446 16.9569 11.181 16.1069C10.911 15.8748 10.6025 15.4112 11.2196 14.8702L15.2663 11.0052C15.7288 10.5417 16.1913 9.45953 14.2642 10.7734L8.86785 14.4448C8.86785 14.4448 8.25108 14.8316 7.09502 14.4837L4.58934 13.7105C4.58934 13.7105 3.66436 13.1309 5.24469 12.5513C9.09928 10.7349 13.8403 8.8799 18.0413 7.14064H18.042Z" fill="#1D3A49"/>
</g>
<defs>
<clipPath id="clip0_504_3827">
<rect width="25" height="25" fill="white" transform="translate(0.00390625)"/>
</clipPath>
</defs>
</svg>
