<svg width="26" height="25" viewBox="0 0 26 25" fill="none" xmlns="http://www.w3.org/2000/svg">
<g clip-path="url(#clip0_504_3824)">
<circle cx="12.5039" cy="12.5" r="12.5" fill="#FECC00"/>
<path fill-rule="evenodd" clip-rule="evenodd" d="M20.5051 8.9362C20.6296 8.52671 20.5051 8.22522 19.9089 8.22522H17.9402C17.4392 8.22522 17.2082 8.48546 17.0829 8.77271C17.0829 8.77271 16.0817 11.1697 14.6635 12.7266C14.2045 13.1781 13.996 13.3214 13.7455 13.3214C13.6202 13.3214 13.432 13.1781 13.432 12.7679V8.9362C13.432 8.44422 13.294 8.22522 12.877 8.22522H9.78107C9.46833 8.22522 9.28009 8.45321 9.28009 8.66996C9.28009 9.1357 9.98957 9.2437 10.0623 10.5547V13.4031C10.0623 14.0278 9.94757 14.1411 9.69708 14.1411C9.02959 14.1411 7.40587 11.7329 6.44214 8.97745C6.2554 8.44122 6.0664 8.22522 5.56316 8.22522H3.59295C3.03047 8.22522 2.91797 8.48546 2.91797 8.77271C2.91797 9.2842 3.58545 11.8251 6.02665 15.1858C7.65412 17.4808 9.94532 18.725 12.0325 18.725C13.2843 18.725 13.4387 18.449 13.4387 17.9728V16.2381C13.4387 15.6853 13.5572 15.5751 13.954 15.5751C14.2465 15.5751 14.7467 15.7191 15.9152 16.8253C17.2502 18.137 17.4699 18.725 18.2214 18.725H20.1901C20.7526 18.725 21.0346 18.449 20.8726 17.903C20.6941 17.36 20.0566 16.5718 19.2114 15.6366C18.7524 15.1041 18.0639 14.5303 17.8547 14.2431C17.5629 13.8749 17.6462 13.7106 17.8547 13.3829C17.8547 13.3829 20.2546 10.0634 20.5043 8.9362H20.5051Z" fill="#1D3A49"/>
</g>
<defs>
<clipPath id="clip0_504_3824">
<rect width="25" height="25" fill="white" transform="translate(0.00390625)"/>
</clipPath>
</defs>
</svg>
