<svg width="25" height="25" viewBox="0 0 25 25" fill="none" xmlns="http://www.w3.org/2000/svg">
<g clip-path="url(#clip0_504_3818)">
<circle cx="12.5" cy="12.5" r="12.5" fill="#FECC00"/>
<path d="M12.5005 4.8208C10.9008 4.82269 9.36723 5.45898 8.2361 6.5901C7.10498 7.72122 6.46869 9.25481 6.4668 10.8545C6.46489 12.1617 6.89189 13.4335 7.68231 14.4747C7.68231 14.4747 7.84687 14.6913 7.87374 14.7226L12.5005 20.1792L17.1294 14.7198C17.1535 14.6908 17.3186 14.4747 17.3186 14.4747L17.3192 14.473C18.1092 13.4323 18.536 12.1611 18.5341 10.8545C18.5322 9.25481 17.8959 7.72122 16.7648 6.5901C15.6337 5.45898 14.1001 4.82269 12.5005 4.8208V4.8208ZM12.5005 13.0485C12.0665 13.0485 11.6423 12.9198 11.2815 12.6787C10.9207 12.4377 10.6395 12.095 10.4734 11.6941C10.3074 11.2932 10.2639 10.852 10.3486 10.4264C10.4332 10.0008 10.6422 9.60987 10.949 9.30302C11.2559 8.99618 11.6468 8.78722 12.0724 8.70256C12.498 8.6179 12.9392 8.66135 13.3401 8.82741C13.741 8.99348 14.0837 9.27469 14.3248 9.6355C14.5658 9.99632 14.6945 10.4205 14.6945 10.8545C14.6938 11.4361 14.4624 11.9938 14.0511 12.4051C13.6398 12.8164 13.0821 13.0478 12.5005 13.0485V13.0485Z" fill="#1D3A49"/>
</g>
<defs>
<clipPath id="clip0_504_3818">
<rect width="25" height="25" fill="white"/>
</clipPath>
</defs>
</svg>
