<svg width="26" height="25" viewBox="0 0 26 25" fill="none" xmlns="http://www.w3.org/2000/svg">
<g clip-path="url(#clip0_504_3821)">
<circle cx="12.5039" cy="12.5" r="12.5" fill="#FECC00"/>
<path d="M5.49315 8.57828L11.7326 11.9301C11.9423 12.0424 12.2135 12.0957 12.4864 12.0957C12.7592 12.0957 13.0304 12.0424 13.2401 11.9301L19.4796 8.57828C19.8864 8.35949 20.2707 7.50842 19.5245 7.50842H5.44906C4.70282 7.50842 5.08717 8.35949 5.49315 8.57828ZM19.6684 10.411L13.2401 13.7612C12.9572 13.9093 12.7592 13.9268 12.4864 13.9268C12.2135 13.9268 12.0155 13.9093 11.7326 13.7612C11.4498 13.6131 5.79847 10.6506 5.33675 10.4102C5.0123 10.2405 5.01563 10.4393 5.01563 10.5924V16.6596C5.01563 17.0091 5.4865 17.4916 5.84756 17.4916H19.1584C19.5195 17.4916 19.9904 17.0091 19.9904 16.6596V10.5932C19.9904 10.4401 19.9937 10.2413 19.6684 10.411Z" fill="#1D3A49"/>
</g>
<defs>
<clipPath id="clip0_504_3821">
<rect width="25" height="25" fill="white" transform="translate(0.00390625)"/>
</clipPath>
</defs>
</svg>
