<svg width="25" height="25" viewBox="0 0 25 25" fill="none" xmlns="http://www.w3.org/2000/svg">
<g clip-path="url(#clip0_504_3815)">
<circle cx="12.5" cy="12.5" r="12.5" fill="#FECC00"/>
<path d="M17.4406 8.89609L15.8897 7.3466C15.7803 7.23671 15.6502 7.14952 15.507 7.09004C15.3638 7.03056 15.2103 6.99996 15.0552 7C14.7392 7 14.4421 7.12378 14.2193 7.3466L12.5504 9.0155C12.4405 9.12491 12.3533 9.25495 12.2938 9.39815C12.2344 9.54135 12.2038 9.69489 12.2038 9.84996C12.2038 10.166 12.3276 10.4631 12.5504 10.6859L13.7708 11.9062C13.4851 12.5359 13.0879 13.1087 12.5984 13.597C12.1102 14.0877 11.5374 14.4863 10.9077 14.7737L9.68732 13.5533C9.57792 13.4434 9.44788 13.3562 9.30468 13.2967C9.16148 13.2373 9.00793 13.2067 8.85287 13.2067C8.53686 13.2067 8.23977 13.3305 8.01696 13.5533L6.3466 15.2208C6.23658 15.3304 6.14931 15.4606 6.08983 15.6041C6.03035 15.7476 5.99982 15.9014 6 16.0567C6 16.3727 6.12379 16.6698 6.3466 16.8926L7.89463 18.4406C8.24997 18.7974 8.74074 18.9998 9.24461 18.9998C9.35092 18.9998 9.45286 18.9911 9.55335 18.9736C11.5164 18.6503 13.4635 17.6062 15.0348 16.0363C16.6047 14.4678 17.6474 12.5222 17.9751 10.5533C18.0741 9.9519 17.8746 9.33297 17.4406 8.89609Z" fill="#1D3A49"/>
</g>
<defs>
<clipPath id="clip0_504_3815">
<rect width="25" height="25" fill="white"/>
</clipPath>
</defs>
</svg>
