<svg width="32" height="32" viewBox="0 0 32 32" fill="none" xmlns="http://www.w3.org/2000/svg">
<path d="M27.9793 25.9783C29.5448 24.0963 30.6337 21.8651 31.1537 19.4737C31.6738 17.0822 31.6097 14.6008 30.967 12.2393C30.3242 9.87785 29.1217 7.70578 27.4611 5.90687C25.8005 4.10797 23.7308 2.73514 21.4269 1.90454C19.123 1.07393 16.6528 0.80997 14.2253 1.13499C11.7977 1.46002 9.48418 2.36446 7.48044 3.77181C5.47669 5.17916 3.84166 7.04802 2.71366 9.22028C1.58565 11.3925 0.997861 13.8043 1.00001 16.2516C1.00083 19.8092 2.25554 23.2529 4.54398 25.9783L4.52217 25.9968C4.59848 26.0883 4.68569 26.1668 4.76418 26.2572C4.86229 26.3694 4.96803 26.475 5.06941 26.5839C5.37464 26.9151 5.6886 27.2331 6.01781 27.5316C6.1181 27.6231 6.22166 27.708 6.32305 27.7951C6.67188 28.0958 7.03053 28.3811 7.40226 28.6469C7.45023 28.6796 7.49383 28.7221 7.5418 28.7558V28.7428C10.095 30.538 13.1407 31.5015 16.2627 31.5015C19.3847 31.5015 22.4305 30.538 24.9837 28.7428V28.7558C25.0316 28.7221 25.0741 28.6796 25.1232 28.6469C25.4938 28.3801 25.8536 28.0958 26.2024 27.7951C26.3038 27.708 26.4074 27.622 26.5076 27.5316C26.8369 27.232 27.1508 26.9151 27.456 26.5839C27.5574 26.475 27.6621 26.3694 27.7613 26.2572C27.8387 26.1668 27.927 26.0883 28.0033 25.9958L27.9793 25.9783ZM16.2616 7.53779C17.2319 7.53779 18.1803 7.82526 18.987 8.36384C19.7937 8.90243 20.4225 9.66794 20.7938 10.5636C21.165 11.4592 21.2622 12.4447 21.0729 13.3955C20.8836 14.3463 20.4164 15.2197 19.7304 15.9052C19.0443 16.5907 18.1702 17.0575 17.2187 17.2466C16.2671 17.4357 15.2807 17.3387 14.3844 16.9677C13.488 16.5967 12.7219 15.9685 12.1828 15.1624C11.6438 14.3564 11.3561 13.4087 11.3561 12.4393C11.3561 11.1393 11.8729 9.89262 12.7929 8.97341C13.7129 8.0542 14.9606 7.53779 16.2616 7.53779V7.53779ZM7.54834 25.9783C7.56725 24.5481 8.14893 23.1829 9.16755 22.178C10.1862 21.173 11.5598 20.6092 12.9913 20.6085H19.532C20.9635 20.6092 22.3371 21.173 23.3557 22.178C24.3743 23.1829 24.956 24.5481 24.9749 25.9783C22.5841 28.131 19.4799 29.3223 16.2616 29.3223C13.0433 29.3223 9.93913 28.131 7.54834 25.9783V25.9783Z" fill="#FECC00"/>
</svg>
