<svg width="25" height="25" viewBox="0 0 25 25" fill="none" xmlns="http://www.w3.org/2000/svg">
<path fill-rule="evenodd" clip-rule="evenodd" d="M24.0742 12.1221C24.0742 18.7491 18.7012 24.1221 12.0742 24.1221C5.44722 24.1221 0.0742188 18.7491 0.0742188 12.1221C0.0742188 5.49507 5.44722 0.12207 12.0742 0.12207C18.7012 0.12207 24.0742 5.49507 24.0742 12.1221ZM12.5042 8.98107C11.3372 9.46607 9.00422 10.4711 5.50622 11.9951C4.93822 12.2211 4.64022 12.4421 4.61322 12.6581C4.56722 13.0241 5.02522 13.1681 5.64722 13.3631C5.73222 13.3901 5.82022 13.4171 5.91022 13.4471C6.52322 13.6461 7.34722 13.8791 7.77522 13.8881C8.16422 13.8961 8.59822 13.7361 9.07722 13.4081C12.3452 11.2011 14.0322 10.0861 14.1382 10.0621C14.2132 10.0451 14.3172 10.0231 14.3872 10.0861C14.4572 10.1481 14.4502 10.2661 14.4432 10.2981C14.3972 10.4911 12.6032 12.1601 11.6732 13.0241C11.3832 13.2931 11.1782 13.4841 11.1362 13.5281C11.0422 13.6251 10.9462 13.7181 10.8542 13.8071C10.2842 14.3551 9.85822 14.7671 10.8782 15.4391C11.3682 15.7621 11.7602 16.0291 12.1512 16.2951C12.5782 16.5861 13.0042 16.8761 13.5562 17.2381C13.6962 17.3301 13.8302 17.4251 13.9612 17.5181C14.4582 17.8731 14.9052 18.1911 15.4572 18.1411C15.7772 18.1111 16.1092 17.8101 16.2772 16.9111C16.6742 14.7851 17.4562 10.1811 17.6372 8.28307C17.6482 8.12548 17.6415 7.96716 17.6172 7.81107C17.6027 7.685 17.5413 7.569 17.4452 7.48607C17.3022 7.36907 17.0802 7.34407 16.9802 7.34607C16.5292 7.35407 15.8372 7.59507 12.5042 8.98107Z" fill="black"/>
</svg>
