<svg width="25" height="25" viewBox="0 0 25 25" fill="none" xmlns="http://www.w3.org/2000/svg">
<path d="M12.0742 0.12207C5.44672 0.12207 0.0742188 5.49457 0.0742188 12.1221C0.0742188 18.7496 5.44672 24.1221 12.0742 24.1221C18.7017 24.1221 24.0742 18.7496 24.0742 12.1221C24.0742 5.49457 18.7017 0.12207 12.0742 0.12207ZM16.6892 13.6608C16.6892 13.6608 17.7505 14.7083 18.0117 15.1946C18.0192 15.2046 18.023 15.2146 18.0255 15.2196C18.1317 15.3983 18.1567 15.5371 18.1042 15.6408C18.0167 15.8133 17.7167 15.8983 17.6142 15.9058H15.7392C15.6092 15.9058 15.3367 15.8721 15.0067 15.6446C14.753 15.4671 14.503 15.1758 14.2592 14.8921C13.8955 14.4696 13.5805 14.1046 13.263 14.1046C13.2226 14.1045 13.1826 14.1108 13.1442 14.1233C12.9042 14.2008 12.5967 14.5433 12.5967 15.4558C12.5967 15.7408 12.3717 15.9046 12.213 15.9046H11.3542C11.0617 15.9046 9.53797 15.8021 8.18797 14.3783C6.53547 12.6346 5.04797 9.13707 5.03547 9.10457C4.94172 8.87832 5.13547 8.75707 5.34672 8.75707H7.24047C7.49297 8.75707 7.57547 8.91082 7.63297 9.04707C7.70047 9.20582 7.94797 9.83707 8.35422 10.5471C9.01297 11.7046 9.41672 12.1746 9.74047 12.1746C9.80117 12.1739 9.8608 12.1584 9.91422 12.1296C10.3367 11.8946 10.258 10.3883 10.2392 10.0758C10.2392 10.0171 10.238 9.40207 10.0217 9.10707C9.86672 8.89332 9.60297 8.81207 9.44297 8.78207C9.50773 8.69271 9.59305 8.62025 9.69172 8.57082C9.98172 8.42582 10.5042 8.40457 11.023 8.40457H11.3117C11.8742 8.41207 12.0192 8.44832 12.223 8.49957C12.6355 8.59832 12.6442 8.86457 12.608 9.77582C12.5967 10.0346 12.5855 10.3271 12.5855 10.6721C12.5855 10.7471 12.5817 10.8271 12.5817 10.9121C12.5692 11.3758 12.5542 11.9021 12.8817 12.1183C12.9244 12.1451 12.9738 12.1594 13.0242 12.1596C13.138 12.1596 13.4805 12.1596 14.408 10.5683C14.694 10.0561 14.9426 9.52392 15.1517 8.97582C15.1705 8.94332 15.2255 8.84332 15.2905 8.80457C15.3384 8.78012 15.3916 8.76768 15.4455 8.76832H17.6717C17.9142 8.76832 18.0805 8.80457 18.1117 8.89832C18.1667 9.04707 18.1017 9.50082 17.0855 10.8771L16.6317 11.4758C15.7105 12.6833 15.7105 12.7446 16.6892 13.6608Z" fill="black"/>
</svg>
