<svg style="display: none;">

    <symbol viewBox="0 0 24 24" id="close">
        <path fill-rule="evenodd" clip-rule="evenodd" d="M3.31613 3.2704C3.71908 2.89271 4.35191 2.91318 4.72961 3.31613L11.4987 10.5379L18.2705 3.31599C18.6483 2.91312 19.2811 2.89276 19.684 3.27053C20.0869 3.6483 20.1072 4.28114 19.7295 4.68401L12.8701 11.9993L19.7295 19.3161C20.1073 19.719 20.0869 20.3518 19.6839 20.7295C19.281 21.1073 18.6482 21.0869 18.2705 20.6839L11.5 13.4621L4.72954 20.6839C4.35181 21.0869 3.71897 21.1073 3.31606 20.7295C2.91315 20.3518 2.89274 19.719 3.27047 19.3161L10.1286 12.0007L3.2704 4.68387C2.89271 4.28093 2.91318 3.64809 3.31613 3.2704Z"/>
    </symbol>

    <symbol viewBox="0 0 16 16" id="arrow--gradient">
        <path d="M4.7998 12L8.7998 8.00002L4.7998 4.00002L5.5998 2.40002L11.1998 8.00002L5.5998 13.6L4.7998 12Z" fill="#0087B2"/>
        <path d="M4.7998 12L8.7998 8.00002L4.7998 4.00002L5.5998 2.40002L11.1998 8.00002L5.5998 13.6L4.7998 12Z" fill="url(#paint0_linear_504_3807)" fill-opacity="0.41"/>
        <defs>
        <linearGradient id="paint0_linear_504_3807" x1="10.3132" y1="14.4214" x2="2.1071" y2="13.7468" gradientUnits="userSpaceOnUse">
        <stop stop-color="#022D3F"/>
        <stop offset="1" stop-color="#0087B2" stop-opacity="0"/>
        </linearGradient>
        </defs>
    </symbol>
    
    <symbol viewBox="0 0 24 24" id="arrow--left">
        <path d="M15.4845 19.0481C14.8566 19.676 13.8385 19.676 13.2105 19.0481L7.16511 13.0027C6.53715 12.3747 6.53715 11.3566 7.16511 10.7286C7.79308 10.1007 8.81121 10.1007 9.43917 10.7286L15.4845 16.774C16.1125 17.402 16.1125 18.4201 15.4845 19.0481Z"/>
        <path d="M15.5607 4.43938C16.1464 5.02517 16.1464 5.97492 15.5607 6.5607L9.1967 12.9247C8.61091 13.5104 7.66117 13.5104 7.07538 12.9247C6.48959 12.3389 6.48959 11.3891 7.07538 10.8033L13.4393 4.43938C14.0251 3.8536 14.9749 3.8536 15.5607 4.43938Z"/>
    </symbol>

    <symbol viewBox="0 0 24 24" id="arrow--right">
            <path d="M7.51545 19.529C8.14342 20.157 9.16155 20.157 9.78951 19.529L15.8349 13.4837C16.4629 12.8557 16.4629 11.8376 15.8349 11.2096C15.2069 10.5816 14.1888 10.5816 13.5608 11.2096L7.51545 17.255C6.88749 17.8829 6.88749 18.9011 7.51545 19.529Z" />
            <path d="M7.43934 4.92034C6.85355 5.50613 6.85355 6.45587 7.43934 7.04166L13.8033 13.4056C14.3891 13.9914 15.3388 13.9914 15.9246 13.4056C16.5104 12.8198 16.5104 11.8701 15.9246 11.2843L9.56066 4.92034C8.97487 4.33455 8.02512 4.33455 7.43934 4.92034Z"/>
    </symbol>
    
    <symbol viewBox="0 0 24 24" id="arrow-round--down">
        <g clip-path="url(#clip0_506_3405)">
        <circle cx="12" cy="12" r="12" transform="rotate(90 12 12)" fill="#262626"/>
        <path fill-rule="evenodd" clip-rule="evenodd" d="M11.3334 0.0182002C11.5541 0.00611931 11.7763 -2.72045e-07 12 -2.62268e-07C12.2237 -2.52491e-07 12.4459 0.00611934 12.6666 0.0182002L12.6666 12.6823L16.8607 8.41164C16.9858 8.28423 17.1556 8.21265 17.3326 8.21265C17.5096 8.21265 17.6794 8.28423 17.8045 8.41164C17.9297 8.53905 18 8.71185 18 8.89203C18 9.07222 17.9297 9.24502 17.8045 9.37243L12.4719 14.8007C12.41 14.8638 12.3365 14.914 12.2555 14.9482C12.1745 14.9824 12.0877 15 12 15C11.9123 15 11.8255 14.9824 11.7445 14.9482C11.6635 14.914 11.59 14.8638 11.5281 14.8007L6.19548 9.37243C6.07032 9.24502 6 9.07222 6 8.89203C6 8.71185 6.07032 8.53905 6.19548 8.41164C6.32064 8.28423 6.4904 8.21265 6.66741 8.21265C6.84442 8.21265 7.01418 8.28423 7.13935 8.41164L11.3334 12.6823L11.3334 0.0182002Z" fill="#FECC00"/>
        </g>
        <defs>
        <clipPath id="clip0_506_3405">
        <rect width="24" height="24" fill="white" transform="translate(24) rotate(90)"/>
        </clipPath>
        </defs>
    </symbol>

    <symbol viewBox="0 0 24 24" id="arrow-round--right">
        <g clip-path="url(#clip0_506_3405)">
        <circle cx="12" cy="12" r="12" fill="#262626"/>
        <path fill-rule="evenodd" clip-rule="evenodd" d="M0.0182004 12.6666C0.00611973 12.4459 0 12.2237 0 12C0 11.7763 0.00611973 11.5541 0.0182004 11.3334H12.6823L8.41164 7.13935C8.28423 7.01418 8.21265 6.84442 8.21265 6.66742C8.21265 6.49041 8.28423 6.32065 8.41164 6.19548C8.53905 6.07032 8.71185 6 8.89203 6C9.07222 6 9.24502 6.07032 9.37243 6.19548L14.8007 11.5281C14.8638 11.59 14.914 11.6635 14.9482 11.7445C14.9824 11.8255 15 11.9123 15 12C15 12.0877 14.9824 12.1745 14.9482 12.2555C14.914 12.3365 14.8638 12.41 14.8007 12.4719L9.37243 17.8045C9.24502 17.9297 9.07222 18 8.89203 18C8.71185 18 8.53905 17.9297 8.41164 17.8045C8.28423 17.6794 8.21265 17.5096 8.21265 17.3326C8.21265 17.1556 8.28423 16.9858 8.41164 16.8607L12.6823 12.6666H0.0182004Z" fill="#FECC00"/>
        </g>
        <defs>
        <clipPath id="clip0_506_3405">
        <rect width="24" height="24" fill="white"/>
        </clipPath>
        </defs>
    </symbol>

    <symbol viewBox="0 0 24 24" id="arrow-round-white--right">
        <g clip-path="url(#clip0_508_3194)">
        <circle cx="12" cy="12" r="12" fill="white"/>
        <g clip-path="url(#clip1_508_3194)">
        <path fill-rule="evenodd" clip-rule="evenodd" d="M-4 12C-4 11.8232 -3.92851 11.6537 -3.80126 11.5287C-3.67402 11.4037 -3.50143 11.3334 -3.32147 11.3334H12.6823L8.41164 7.13935C8.28423 7.01418 8.21265 6.84442 8.21265 6.66742C8.21265 6.49041 8.28423 6.32065 8.41164 6.19548C8.53905 6.07032 8.71185 6 8.89203 6C9.07222 6 9.24502 6.07032 9.37243 6.19548L14.8007 11.5281C14.8638 11.59 14.914 11.6635 14.9482 11.7445C14.9824 11.8255 15 11.9123 15 12C15 12.0877 14.9824 12.1745 14.9482 12.2555C14.914 12.3365 14.8638 12.41 14.8007 12.4719L9.37243 17.8045C9.24502 17.9297 9.07222 18 8.89203 18C8.71185 18 8.53905 17.9297 8.41164 17.8045C8.28423 17.6794 8.21265 17.5096 8.21265 17.3326C8.21265 17.1556 8.28423 16.9858 8.41164 16.8607L12.6823 12.6666H-3.32147C-3.50143 12.6666 -3.67402 12.5963 -3.80126 12.4713C-3.92851 12.3463 -4 12.1768 -4 12V12Z" fill="#003042"/>
        </g>
        </g>
        <defs>
        <clipPath id="clip0_508_3194">
        <rect width="24" height="24" fill="white"/>
        </clipPath>
        <clipPath id="clip1_508_3194">
        <rect width="15" height="16" fill="white" transform="translate(0 4)"/>
        </clipPath>
        </defs>
    </symbol>

    <symbol viewBox="0 0 24 24" id="arrow-round-yellow--right">
        <g clip-path="url(#clip0_506_3264)">
        <circle cx="12" cy="12" r="12" fill="#FECC00"/>
        <path fill-rule="evenodd" clip-rule="evenodd" d="M0.0182005 12.6666C0.00611959 12.4459 0 12.2237 0 12C0 11.7763 0.00611959 11.5541 0.0182005 11.3334H12.6823L8.41164 7.13935C8.28423 7.01418 8.21265 6.84442 8.21265 6.66742C8.21265 6.49041 8.28423 6.32065 8.41164 6.19548C8.53905 6.07032 8.71185 6 8.89203 6C9.07222 6 9.24502 6.07032 9.37243 6.19548L14.8007 11.5281C14.8638 11.59 14.914 11.6635 14.9482 11.7445C14.9824 11.8255 15 11.9123 15 12C15 12.0877 14.9824 12.1745 14.9482 12.2555C14.914 12.3365 14.8638 12.41 14.8007 12.4719L9.37243 17.8045C9.24502 17.9297 9.07222 18 8.89203 18C8.71185 18 8.53905 17.9297 8.41164 17.8045C8.28423 17.6794 8.21265 17.5096 8.21265 17.3326C8.21265 17.1556 8.28423 16.9858 8.41164 16.8607L12.6823 12.6666H0.0182005Z" fill="#262626"/>
        </g>
        <defs>
        <clipPath id="clip0_506_3264">
        <rect width="24" height="24" fill="white"/>
        </clipPath>
        </defs>
    </symbol>

    <symbol viewBox="0 0 25 25" id="checkbox">
        <path d="M9.77273 15.7015L6.19318 12.2537L5 13.403L9.77273 18L20 8.14925L18.8068 7L9.77273 15.7015Z"/>
    </symbol>

    <symbol viewBox="0 0 25 25" id="contact-geo">
        <g clip-path="url(#clip0_504_3818)">
        <circle cx="12.5" cy="12.5" r="12.5" fill="#FECC00"/>
        <path d="M12.5005 4.8208C10.9008 4.82269 9.36723 5.45898 8.2361 6.5901C7.10498 7.72122 6.46869 9.25481 6.4668 10.8545C6.46489 12.1617 6.89189 13.4335 7.68231 14.4747C7.68231 14.4747 7.84687 14.6913 7.87374 14.7226L12.5005 20.1792L17.1294 14.7198C17.1535 14.6908 17.3186 14.4747 17.3186 14.4747L17.3192 14.473C18.1092 13.4323 18.536 12.1611 18.5341 10.8545C18.5322 9.25481 17.8959 7.72122 16.7648 6.5901C15.6337 5.45898 14.1001 4.82269 12.5005 4.8208V4.8208ZM12.5005 13.0485C12.0665 13.0485 11.6423 12.9198 11.2815 12.6787C10.9207 12.4377 10.6395 12.095 10.4734 11.6941C10.3074 11.2932 10.2639 10.852 10.3486 10.4264C10.4332 10.0008 10.6422 9.60987 10.949 9.30302C11.2559 8.99618 11.6468 8.78722 12.0724 8.70256C12.498 8.6179 12.9392 8.66135 13.3401 8.82741C13.741 8.99348 14.0837 9.27469 14.3248 9.6355C14.5658 9.99632 14.6945 10.4205 14.6945 10.8545C14.6938 11.4361 14.4624 11.9938 14.0511 12.4051C13.6398 12.8164 13.0821 13.0478 12.5005 13.0485V13.0485Z" fill="#1D3A49"/>
        </g>
        <defs>
        <clipPath id="clip0_504_3818">
        <rect width="25" height="25" fill="white"/>
        </clipPath>
        </defs>
    </symbol>

    <symbol viewBox="0 0 25 25" id="contact-mail">
        <g clip-path="url(#clip0_504_3821)">
        <circle cx="12.5039" cy="12.5" r="12.5" fill="#FECC00"/>
        <path d="M5.49315 8.57828L11.7326 11.9301C11.9423 12.0424 12.2135 12.0957 12.4864 12.0957C12.7592 12.0957 13.0304 12.0424 13.2401 11.9301L19.4796 8.57828C19.8864 8.35949 20.2707 7.50842 19.5245 7.50842H5.44906C4.70282 7.50842 5.08717 8.35949 5.49315 8.57828ZM19.6684 10.411L13.2401 13.7612C12.9572 13.9093 12.7592 13.9268 12.4864 13.9268C12.2135 13.9268 12.0155 13.9093 11.7326 13.7612C11.4498 13.6131 5.79847 10.6506 5.33675 10.4102C5.0123 10.2405 5.01563 10.4393 5.01563 10.5924V16.6596C5.01563 17.0091 5.4865 17.4916 5.84756 17.4916H19.1584C19.5195 17.4916 19.9904 17.0091 19.9904 16.6596V10.5932C19.9904 10.4401 19.9937 10.2413 19.6684 10.411Z" fill="#1D3A49"/>
        </g>
        <defs>
        <clipPath id="clip0_504_3821">
        <rect width="25" height="25" fill="white" transform="translate(0.00390625)"/>
        </clipPath>
        </defs>
    </symbol>

    <symbol viewBox="0 0 25 25" id="contact-phone">
        <g clip-path="url(#clip0_504_3815)">
        <circle cx="12.5" cy="12.5" r="12.5" fill="#FECC00"/>
        <path d="M17.4406 8.89609L15.8897 7.3466C15.7803 7.23671 15.6502 7.14952 15.507 7.09004C15.3638 7.03056 15.2103 6.99996 15.0552 7C14.7392 7 14.4421 7.12378 14.2193 7.3466L12.5504 9.0155C12.4405 9.12491 12.3533 9.25495 12.2938 9.39815C12.2344 9.54135 12.2038 9.69489 12.2038 9.84996C12.2038 10.166 12.3276 10.4631 12.5504 10.6859L13.7708 11.9062C13.4851 12.5359 13.0879 13.1087 12.5984 13.597C12.1102 14.0877 11.5374 14.4863 10.9077 14.7737L9.68732 13.5533C9.57792 13.4434 9.44788 13.3562 9.30468 13.2967C9.16148 13.2373 9.00793 13.2067 8.85287 13.2067C8.53686 13.2067 8.23977 13.3305 8.01696 13.5533L6.3466 15.2208C6.23658 15.3304 6.14931 15.4606 6.08983 15.6041C6.03035 15.7476 5.99982 15.9014 6 16.0567C6 16.3727 6.12379 16.6698 6.3466 16.8926L7.89463 18.4406C8.24997 18.7974 8.74074 18.9998 9.24461 18.9998C9.35092 18.9998 9.45286 18.9911 9.55335 18.9736C11.5164 18.6503 13.4635 17.6062 15.0348 16.0363C16.6047 14.4678 17.6474 12.5222 17.9751 10.5533C18.0741 9.9519 17.8746 9.33297 17.4406 8.89609Z" fill="#1D3A49"/>
        </g>
        <defs>
        <clipPath id="clip0_504_3815">
        <rect width="25" height="25" fill="white"/>
        </clipPath>
        </defs>
    </symbol>

    <symbol viewBox="0 0 25 25" id="contact-tg">
        <g clip-path="url(#clip0_504_3827)">
        <circle cx="12.5039" cy="12.5" r="12.5" fill="#FECC00"/>
        <path d="M18.042 7.14064C18.042 7.14064 19.4295 6.59957 19.3134 7.91348C19.2752 8.45454 18.9284 10.3484 18.6584 12.3966L17.7334 18.4644C17.7334 18.4644 17.6563 19.3533 16.9624 19.508C16.2688 19.6622 15.2281 18.9669 15.0353 18.8123C14.881 18.6962 12.1446 16.9569 11.181 16.1069C10.911 15.8748 10.6025 15.4112 11.2196 14.8702L15.2663 11.0052C15.7288 10.5417 16.1913 9.45953 14.2642 10.7734L8.86785 14.4448C8.86785 14.4448 8.25108 14.8316 7.09502 14.4837L4.58934 13.7105C4.58934 13.7105 3.66436 13.1309 5.24469 12.5513C9.09928 10.7349 13.8403 8.8799 18.0413 7.14064H18.042Z" fill="#1D3A49"/>
        </g>
        <defs>
        <clipPath id="clip0_504_3827">
        <rect width="25" height="25" fill="white" transform="translate(0.00390625)"/>
        </clipPath>
        </defs>
    </symbol>

    <symbol viewBox="0 0 25 25" id="contact-vk">
        <g clip-path="url(#clip0_504_3824)">
        <circle cx="12.5039" cy="12.5" r="12.5" fill="#FECC00"/>
        <path fill-rule="evenodd" clip-rule="evenodd" d="M20.5051 8.9362C20.6296 8.52671 20.5051 8.22522 19.9089 8.22522H17.9402C17.4392 8.22522 17.2082 8.48546 17.0829 8.77271C17.0829 8.77271 16.0817 11.1697 14.6635 12.7266C14.2045 13.1781 13.996 13.3214 13.7455 13.3214C13.6202 13.3214 13.432 13.1781 13.432 12.7679V8.9362C13.432 8.44422 13.294 8.22522 12.877 8.22522H9.78107C9.46833 8.22522 9.28009 8.45321 9.28009 8.66996C9.28009 9.1357 9.98957 9.2437 10.0623 10.5547V13.4031C10.0623 14.0278 9.94757 14.1411 9.69708 14.1411C9.02959 14.1411 7.40587 11.7329 6.44214 8.97745C6.2554 8.44122 6.0664 8.22522 5.56316 8.22522H3.59295C3.03047 8.22522 2.91797 8.48546 2.91797 8.77271C2.91797 9.2842 3.58545 11.8251 6.02665 15.1858C7.65412 17.4808 9.94532 18.725 12.0325 18.725C13.2843 18.725 13.4387 18.449 13.4387 17.9728V16.2381C13.4387 15.6853 13.5572 15.5751 13.954 15.5751C14.2465 15.5751 14.7467 15.7191 15.9152 16.8253C17.2502 18.137 17.4699 18.725 18.2214 18.725H20.1901C20.7526 18.725 21.0346 18.449 20.8726 17.903C20.6941 17.36 20.0566 16.5718 19.2114 15.6366C18.7524 15.1041 18.0639 14.5303 17.8547 14.2431C17.5629 13.8749 17.6462 13.7106 17.8547 13.3829C17.8547 13.3829 20.2546 10.0634 20.5043 8.9362H20.5051Z" fill="#1D3A49"/>
        </g>
        <defs>
        <clipPath id="clip0_504_3824">
        <rect width="25" height="25" fill="white" transform="translate(0.00390625)"/>
        </clipPath>
        </defs>
    </symbol>

    <symbol viewBox="0 0 25 25" id="soc-tg">
        <path fill-rule="evenodd" clip-rule="evenodd" d="M24.0742 12.1221C24.0742 18.7491 18.7012 24.1221 12.0742 24.1221C5.44722 24.1221 0.0742188 18.7491 0.0742188 12.1221C0.0742188 5.49507 5.44722 0.12207 12.0742 0.12207C18.7012 0.12207 24.0742 5.49507 24.0742 12.1221ZM12.5042 8.98107C11.3372 9.46607 9.00422 10.4711 5.50622 11.9951C4.93822 12.2211 4.64022 12.4421 4.61322 12.6581C4.56722 13.0241 5.02522 13.1681 5.64722 13.3631C5.73222 13.3901 5.82022 13.4171 5.91022 13.4471C6.52322 13.6461 7.34722 13.8791 7.77522 13.8881C8.16422 13.8961 8.59822 13.7361 9.07722 13.4081C12.3452 11.2011 14.0322 10.0861 14.1382 10.0621C14.2132 10.0451 14.3172 10.0231 14.3872 10.0861C14.4572 10.1481 14.4502 10.2661 14.4432 10.2981C14.3972 10.4911 12.6032 12.1601 11.6732 13.0241C11.3832 13.2931 11.1782 13.4841 11.1362 13.5281C11.0422 13.6251 10.9462 13.7181 10.8542 13.8071C10.2842 14.3551 9.85822 14.7671 10.8782 15.4391C11.3682 15.7621 11.7602 16.0291 12.1512 16.2951C12.5782 16.5861 13.0042 16.8761 13.5562 17.2381C13.6962 17.3301 13.8302 17.4251 13.9612 17.5181C14.4582 17.8731 14.9052 18.1911 15.4572 18.1411C15.7772 18.1111 16.1092 17.8101 16.2772 16.9111C16.6742 14.7851 17.4562 10.1811 17.6372 8.28307C17.6482 8.12548 17.6415 7.96716 17.6172 7.81107C17.6027 7.685 17.5413 7.569 17.4452 7.48607C17.3022 7.36907 17.0802 7.34407 16.9802 7.34607C16.5292 7.35407 15.8372 7.59507 12.5042 8.98107Z"/>
    </symbol>

    <symbol viewBox="0 0 25 25" id="soc-vk">
        <path d="M12.0742 0.12207C5.44672 0.12207 0.0742188 5.49457 0.0742188 12.1221C0.0742188 18.7496 5.44672 24.1221 12.0742 24.1221C18.7017 24.1221 24.0742 18.7496 24.0742 12.1221C24.0742 5.49457 18.7017 0.12207 12.0742 0.12207ZM16.6892 13.6608C16.6892 13.6608 17.7505 14.7083 18.0117 15.1946C18.0192 15.2046 18.023 15.2146 18.0255 15.2196C18.1317 15.3983 18.1567 15.5371 18.1042 15.6408C18.0167 15.8133 17.7167 15.8983 17.6142 15.9058H15.7392C15.6092 15.9058 15.3367 15.8721 15.0067 15.6446C14.753 15.4671 14.503 15.1758 14.2592 14.8921C13.8955 14.4696 13.5805 14.1046 13.263 14.1046C13.2226 14.1045 13.1826 14.1108 13.1442 14.1233C12.9042 14.2008 12.5967 14.5433 12.5967 15.4558C12.5967 15.7408 12.3717 15.9046 12.213 15.9046H11.3542C11.0617 15.9046 9.53797 15.8021 8.18797 14.3783C6.53547 12.6346 5.04797 9.13707 5.03547 9.10457C4.94172 8.87832 5.13547 8.75707 5.34672 8.75707H7.24047C7.49297 8.75707 7.57547 8.91082 7.63297 9.04707C7.70047 9.20582 7.94797 9.83707 8.35422 10.5471C9.01297 11.7046 9.41672 12.1746 9.74047 12.1746C9.80117 12.1739 9.8608 12.1584 9.91422 12.1296C10.3367 11.8946 10.258 10.3883 10.2392 10.0758C10.2392 10.0171 10.238 9.40207 10.0217 9.10707C9.86672 8.89332 9.60297 8.81207 9.44297 8.78207C9.50773 8.69271 9.59305 8.62025 9.69172 8.57082C9.98172 8.42582 10.5042 8.40457 11.023 8.40457H11.3117C11.8742 8.41207 12.0192 8.44832 12.223 8.49957C12.6355 8.59832 12.6442 8.86457 12.608 9.77582C12.5967 10.0346 12.5855 10.3271 12.5855 10.6721C12.5855 10.7471 12.5817 10.8271 12.5817 10.9121C12.5692 11.3758 12.5542 11.9021 12.8817 12.1183C12.9244 12.1451 12.9738 12.1594 13.0242 12.1596C13.138 12.1596 13.4805 12.1596 14.408 10.5683C14.694 10.0561 14.9426 9.52392 15.1517 8.97582C15.1705 8.94332 15.2255 8.84332 15.2905 8.80457C15.3384 8.78012 15.3916 8.76768 15.4455 8.76832H17.6717C17.9142 8.76832 18.0805 8.80457 18.1117 8.89832C18.1667 9.04707 18.1017 9.50082 17.0855 10.8771L16.6317 11.4758C15.7105 12.6833 15.7105 12.7446 16.6892 13.6608Z"/>
    </symbol>

    <symbol viewBox="0 0 24 24" id="download">
        <path d="M18.944 11.112C18.507 7.67 15.56 5 12 5C9.244 5 6.85 6.61 5.757 9.149C3.609 9.792 2 11.82 2 14C2 16.657 4.089 18.815 6.708 18.971V19H17.99V18.997L18 19C20.206 19 22 17.206 22 15C21.9988 14.1035 21.6971 13.2333 21.1431 12.5285C20.5891 11.8237 19.8148 11.3249 18.944 11.112V11.112ZM8 12H11V9H13V12H16L12 17L8 12Z"/>
    </symbol>

    <symbol viewBox="0 0 32 32" id="login">
        <path d="M27.9793 25.9783C29.5448 24.0963 30.6337 21.8651 31.1537 19.4737C31.6738 17.0822 31.6097 14.6008 30.967 12.2393C30.3242 9.87785 29.1217 7.70578 27.4611 5.90687C25.8005 4.10797 23.7308 2.73514 21.4269 1.90454C19.123 1.07393 16.6528 0.80997 14.2253 1.13499C11.7977 1.46002 9.48418 2.36446 7.48044 3.77181C5.47669 5.17916 3.84166 7.04802 2.71366 9.22028C1.58565 11.3925 0.997861 13.8043 1.00001 16.2516C1.00083 19.8092 2.25554 23.2529 4.54398 25.9783L4.52217 25.9968C4.59848 26.0883 4.68569 26.1668 4.76418 26.2572C4.86229 26.3694 4.96803 26.475 5.06941 26.5839C5.37464 26.9151 5.6886 27.2331 6.01781 27.5316C6.1181 27.6231 6.22166 27.708 6.32305 27.7951C6.67188 28.0958 7.03053 28.3811 7.40226 28.6469C7.45023 28.6796 7.49383 28.7221 7.5418 28.7558V28.7428C10.095 30.538 13.1407 31.5015 16.2627 31.5015C19.3847 31.5015 22.4305 30.538 24.9837 28.7428V28.7558C25.0316 28.7221 25.0741 28.6796 25.1232 28.6469C25.4938 28.3801 25.8536 28.0958 26.2024 27.7951C26.3038 27.708 26.4074 27.622 26.5076 27.5316C26.8369 27.232 27.1508 26.9151 27.456 26.5839C27.5574 26.475 27.6621 26.3694 27.7613 26.2572C27.8387 26.1668 27.927 26.0883 28.0033 25.9958L27.9793 25.9783ZM16.2616 7.53779C17.2319 7.53779 18.1803 7.82526 18.987 8.36384C19.7937 8.90243 20.4225 9.66794 20.7938 10.5636C21.165 11.4592 21.2622 12.4447 21.0729 13.3955C20.8836 14.3463 20.4164 15.2197 19.7304 15.9052C19.0443 16.5907 18.1702 17.0575 17.2187 17.2466C16.2671 17.4357 15.2807 17.3387 14.3844 16.9677C13.488 16.5967 12.7219 15.9685 12.1828 15.1624C11.6438 14.3564 11.3561 13.4087 11.3561 12.4393C11.3561 11.1393 11.8729 9.89262 12.7929 8.97341C13.7129 8.0542 14.9606 7.53779 16.2616 7.53779V7.53779ZM7.54834 25.9783C7.56725 24.5481 8.14893 23.1829 9.16755 22.178C10.1862 21.173 11.5598 20.6092 12.9913 20.6085H19.532C20.9635 20.6092 22.3371 21.173 23.3557 22.178C24.3743 23.1829 24.956 24.5481 24.9749 25.9783C22.5841 28.131 19.4799 29.3223 16.2616 29.3223C13.0433 29.3223 9.93913 28.131 7.54834 25.9783V25.9783Z" fill="#FECC00"/>
    </symbol>

    <symbol viewBox="0 0 24 24" id="view">
        <path d="M14.5 12C14.5 12.663 14.2366 13.2989 13.7678 13.7678C13.2989 14.2366 12.663 14.5 12 14.5C11.337 14.5 10.7011 14.2366 10.2322 13.7678C9.76339 13.2989 9.5 12.663 9.5 12C9.5 11.337 9.76339 10.7011 10.2322 10.2322C10.7011 9.76339 11.337 9.5 12 9.5C12.663 9.5 13.2989 9.76339 13.7678 10.2322C14.2366 10.7011 14.5 11.337 14.5 12V12Z"/>
        <path d="M4 12C4 12 7 6.5 12 6.5C17 6.5 20 12 20 12C20 12 17 17.5 12 17.5C7 17.5 4 12 4 12ZM12 15.5C12.9283 15.5 13.8185 15.1313 14.4749 14.4749C15.1313 13.8185 15.5 12.9283 15.5 12C15.5 11.0717 15.1313 10.1815 14.4749 9.52513C13.8185 8.86875 12.9283 8.5 12 8.5C11.0717 8.5 10.1815 8.86875 9.52513 9.52513C8.86875 10.1815 8.5 11.0717 8.5 12C8.5 12.9283 8.86875 13.8185 9.52513 14.4749C10.1815 15.1313 11.0717 15.5 12 15.5V15.5Z"/>
    </symbol>

    <symbol viewBox="0 0 53 51" id="tooltip">
        <g filter="url(#filter0_di_430_2105)">
        <ellipse cx="27.7148" cy="22.5" rx="8" ry="7.5" fill="#010E12"/>
        <ellipse cx="27.7148" cy="22.5" rx="8" ry="7.5" fill="url(#paint0_linear_430_2105)"/>
        </g>
        <path d="M27.7229 17.959C26.2127 17.959 25.2344 18.5391 24.4664 19.5737C24.3271 19.7613 24.3701 20.0187 24.5644 20.1568L25.3806 20.737C25.5769 20.8765 25.8562 20.8439 26.0098 20.6635C26.4838 20.1068 26.8354 19.7863 27.5757 19.7863C28.1578 19.7863 28.8778 20.1375 28.8778 20.6667C28.8778 21.0667 28.5255 21.2722 27.9508 21.5743C27.2805 21.9266 26.3936 22.365 26.3936 23.4618V23.6354C26.3936 23.8705 26.5969 24.0611 26.8477 24.0611H28.2189C28.4697 24.0611 28.6731 23.8705 28.6731 23.6354V23.533C28.6731 22.7727 31.0433 22.741 31.0433 20.6837C31.0433 19.1343 29.329 17.959 27.7229 17.959ZM27.5333 24.5837C26.8106 24.5837 26.2226 25.1349 26.2226 25.8125C26.2226 26.49 26.8106 27.0412 27.5333 27.0412C28.256 27.0412 28.844 26.49 28.844 25.8124C28.844 25.1349 28.256 24.5837 27.5333 24.5837Z" fill="#FECC00"/>
        <defs>
        <filter id="filter0_di_430_2105" x="0.714844" y="0" width="52" height="51" filterUnits="userSpaceOnUse" color-interpolation-filters="sRGB">
        <feFlood flood-opacity="0" result="BackgroundImageFix"/>
        <feColorMatrix in="SourceAlpha" type="matrix" values="0 0 0 0 0 0 0 0 0 0 0 0 0 0 0 0 0 0 127 0" result="hardAlpha"/>
        <feOffset dx="-1" dy="3"/>
        <feGaussianBlur stdDeviation="9"/>
        <feComposite in2="hardAlpha" operator="out"/>
        <feColorMatrix type="matrix" values="0 0 0 0 1 0 0 0 0 0.8 0 0 0 0 0 0 0 0 0.22 0"/>
        <feBlend mode="normal" in2="BackgroundImageFix" result="effect1_dropShadow_430_2105"/>
        <feBlend mode="normal" in="SourceGraphic" in2="effect1_dropShadow_430_2105" result="shape"/>
        <feColorMatrix in="SourceAlpha" type="matrix" values="0 0 0 0 0 0 0 0 0 0 0 0 0 0 0 0 0 0 127 0" result="hardAlpha"/>
        <feOffset dx="3" dy="7"/>
        <feGaussianBlur stdDeviation="3.5"/>
        <feComposite in2="hardAlpha" operator="arithmetic" k2="-1" k3="1"/>
        <feColorMatrix type="matrix" values="0 0 0 0 1 0 0 0 0 1 0 0 0 0 1 0 0 0 0.3 0"/>
        <feBlend mode="normal" in2="shape" result="effect2_innerShadow_430_2105"/>
        </filter>
        <linearGradient id="paint0_linear_430_2105" x1="19.7148" y1="15" x2="30.3266" y2="33.1503" gradientUnits="userSpaceOnUse">
        <stop stop-color="white" stop-opacity="0.4"/>
        <stop offset="0.0001" stop-color="white" stop-opacity="0.4"/>
        <stop offset="1" stop-color="white" stop-opacity="0"/>
        </linearGradient>
        </defs>
    </symbol>
</svg>