<svg width="53" height="51" viewBox="0 0 53 51" fill="none" xmlns="http://www.w3.org/2000/svg">
<g filter="url(#filter0_di_430_2105)">
<ellipse cx="27.7148" cy="22.5" rx="8" ry="7.5" fill="#010E12"/>
<ellipse cx="27.7148" cy="22.5" rx="8" ry="7.5" fill="url(#paint0_linear_430_2105)"/>
</g>
<path d="M27.7229 17.959C26.2127 17.959 25.2344 18.5391 24.4664 19.5737C24.3271 19.7613 24.3701 20.0187 24.5644 20.1568L25.3806 20.737C25.5769 20.8765 25.8562 20.8439 26.0098 20.6635C26.4838 20.1068 26.8354 19.7863 27.5757 19.7863C28.1578 19.7863 28.8778 20.1375 28.8778 20.6667C28.8778 21.0667 28.5255 21.2722 27.9508 21.5743C27.2805 21.9266 26.3936 22.365 26.3936 23.4618V23.6354C26.3936 23.8705 26.5969 24.0611 26.8477 24.0611H28.2189C28.4697 24.0611 28.6731 23.8705 28.6731 23.6354V23.533C28.6731 22.7727 31.0433 22.741 31.0433 20.6837C31.0433 19.1343 29.329 17.959 27.7229 17.959ZM27.5333 24.5837C26.8106 24.5837 26.2226 25.1349 26.2226 25.8125C26.2226 26.49 26.8106 27.0412 27.5333 27.0412C28.256 27.0412 28.844 26.49 28.844 25.8124C28.844 25.1349 28.256 24.5837 27.5333 24.5837Z" fill="#FECC00"/>
<defs>
<filter id="filter0_di_430_2105" x="0.714844" y="0" width="52" height="51" filterUnits="userSpaceOnUse" color-interpolation-filters="sRGB">
<feFlood flood-opacity="0" result="BackgroundImageFix"/>
<feColorMatrix in="SourceAlpha" type="matrix" values="0 0 0 0 0 0 0 0 0 0 0 0 0 0 0 0 0 0 127 0" result="hardAlpha"/>
<feOffset dx="-1" dy="3"/>
<feGaussianBlur stdDeviation="9"/>
<feComposite in2="hardAlpha" operator="out"/>
<feColorMatrix type="matrix" values="0 0 0 0 1 0 0 0 0 0.8 0 0 0 0 0 0 0 0 0.22 0"/>
<feBlend mode="normal" in2="BackgroundImageFix" result="effect1_dropShadow_430_2105"/>
<feBlend mode="normal" in="SourceGraphic" in2="effect1_dropShadow_430_2105" result="shape"/>
<feColorMatrix in="SourceAlpha" type="matrix" values="0 0 0 0 0 0 0 0 0 0 0 0 0 0 0 0 0 0 127 0" result="hardAlpha"/>
<feOffset dx="3" dy="7"/>
<feGaussianBlur stdDeviation="3.5"/>
<feComposite in2="hardAlpha" operator="arithmetic" k2="-1" k3="1"/>
<feColorMatrix type="matrix" values="0 0 0 0 1 0 0 0 0 1 0 0 0 0 1 0 0 0 0.3 0"/>
<feBlend mode="normal" in2="shape" result="effect2_innerShadow_430_2105"/>
</filter>
<linearGradient id="paint0_linear_430_2105" x1="19.7148" y1="15" x2="30.3266" y2="33.1503" gradientUnits="userSpaceOnUse">
<stop stop-color="white" stop-opacity="0.4"/>
<stop offset="0.0001" stop-color="white" stop-opacity="0.4"/>
<stop offset="1" stop-color="white" stop-opacity="0"/>
</linearGradient>
</defs>
</svg>
