<svg width="123" height="59" viewBox="0 0 123 59" fill="none" xmlns="http://www.w3.org/2000/svg">
<path fill-rule="evenodd" clip-rule="evenodd" d="M40.4513 0C46.3443 0 52.1049 1.73014 57.0047 4.97165C61.9045 8.21315 65.7235 12.8204 67.9786 18.2108C70.2338 23.6013 70.8238 29.5327 69.6741 35.2552C68.5245 40.9776 65.6868 46.234 61.5198 50.3596C57.3528 54.4853 52.0438 57.2949 46.2641 58.4332C40.4844 59.5714 34.4935 58.9872 29.0491 56.7544C23.6048 54.5217 18.9514 50.7406 15.6774 45.8893C12.4035 41.0381 10.656 35.3345 10.656 29.5C10.656 21.6761 13.7951 14.1727 19.3829 8.64035C24.9706 3.10803 32.5491 0 40.4513 0" fill="#FECA0A"/>
<path d="M41.7662 37.7145C59.7913 37.7145 74.4036 34.0469 74.4036 29.5226C74.4036 24.9983 59.7913 21.3307 41.7662 21.3307C23.7411 21.3307 9.12891 24.9983 9.12891 29.5226C9.12891 34.0469 23.7411 37.7145 41.7662 37.7145Z" stroke="#AEBDCB" stroke-width="0.150769" stroke-miterlimit="22.93"/>
<path d="M43.3865 38.7661C62.8631 38.7661 78.652 34.6277 78.652 29.5227C78.652 24.4178 62.8631 20.2794 43.3865 20.2794C23.91 20.2794 8.12109 24.4178 8.12109 29.5227C8.12109 34.6277 23.91 38.7661 43.3865 38.7661Z" stroke="#AEBDCB" stroke-width="0.150769" stroke-miterlimit="22.93"/>
<path d="M45.4257 39.8249C66.5942 39.8249 83.7547 35.2124 83.7547 29.5226C83.7547 23.8328 66.5942 19.2203 45.4257 19.2203C24.2572 19.2203 7.09668 23.8328 7.09668 29.5226C7.09668 35.2124 24.2572 39.8249 45.4257 39.8249Z" stroke="#AEBDCB" stroke-width="0.150769" stroke-miterlimit="22.93"/>
<path d="M47.5577 17.9192C70.4771 17.9192 89.0419 23.1157 89.0419 29.5225C89.0419 35.9293 70.4695 41.1183 47.5577 41.1183C24.6458 41.1183 6.08105 35.9217 6.08105 29.4998C6.08105 23.0779 24.6535 17.9192 47.5577 17.9192Z" stroke="#AEBDCB" stroke-width="0.150769" stroke-miterlimit="22.93"/>
<path d="M50.4831 42.4043C75.4996 42.4043 95.7796 36.6674 95.7796 29.5907C95.7796 22.5139 75.4996 16.7771 50.4831 16.7771C25.4665 16.7771 5.18652 22.5139 5.18652 29.5907C5.18652 36.6674 25.4665 42.4043 50.4831 42.4043Z" stroke="#AEBDCB" stroke-width="0.150769" stroke-miterlimit="22.93"/>
<path d="M53.998 44.0381C81.5842 44.0381 103.947 37.5393 103.947 29.5226C103.947 21.5059 81.5842 15.0071 53.998 15.0071C26.4118 15.0071 4.04883 21.5059 4.04883 29.5226C4.04883 37.5393 26.4118 44.0381 53.998 44.0381Z" stroke="#AEBDCB" stroke-width="0.150769" stroke-miterlimit="22.93"/>
<path d="M57.0754 45.6643C86.9231 45.6643 111.12 38.4374 111.12 29.5225C111.12 20.6077 86.9231 13.3807 57.0754 13.3807C27.2276 13.3807 3.03125 20.6077 3.03125 29.5225C3.03125 38.4374 27.2276 45.6643 57.0754 45.6643Z" stroke="#AEBDCB" stroke-width="0.150769" stroke-miterlimit="22.93"/>
<path d="M59.6054 47.442C91.4152 47.442 117.202 39.4192 117.202 29.5226C117.202 19.626 91.4152 11.6033 59.6054 11.6033C27.7957 11.6033 2.00879 19.626 2.00879 29.5226C2.00879 39.4192 27.7957 47.442 59.6054 47.442Z" stroke="#AEBDCB" stroke-width="0.150769" stroke-miterlimit="22.93"/>
<path d="M61.2477 49.2272C94.5215 49.2272 121.495 40.4052 121.495 29.5227C121.495 18.6402 94.5215 9.81824 61.2477 9.81824C27.9738 9.81824 1 18.6402 1 29.5227C1 40.4052 27.9738 49.2272 61.2477 49.2272Z" stroke="#AEBDCB" stroke-width="0.150769" stroke-miterlimit="22.93"/>
<path fill-rule="evenodd" clip-rule="evenodd" d="M40.4513 0C48.3535 0 55.9321 3.10803 61.5198 8.64035C67.1075 14.1727 70.2467 21.6761 70.2467 29.5C70.2467 29.6286 70.2467 29.7647 70.2467 29.9009H10.656C10.656 29.7647 10.656 29.6286 10.656 29.5C10.656 21.6761 13.7951 14.1727 19.3829 8.64035C24.9706 3.10803 32.5491 0 40.4513 0" fill="#FECA0A"/>
<path fill-rule="evenodd" clip-rule="evenodd" d="M83.7537 27.0719C84.2443 27.0719 84.7237 27.2162 85.1313 27.4865C85.5388 27.7569 85.8561 28.141 86.0427 28.5901C86.2294 29.0392 86.277 29.5332 86.1797 30.0092C86.0823 30.4852 85.8442 30.9218 85.4958 31.2637C85.1473 31.6055 84.7041 31.8371 84.2224 31.9291C83.7408 32.0211 83.2424 31.9693 82.7905 31.7803C82.3386 31.5913 81.9536 31.2737 81.6844 30.8677C81.4152 30.4617 81.2739 29.9856 81.2784 29.5C81.2784 28.85 81.5392 28.2266 82.0034 27.767C82.4676 27.3074 83.0972 27.0492 83.7537 27.0492" fill="#FECA0A"/>
<path fill-rule="evenodd" clip-rule="evenodd" d="M89.0408 27.3291C89.479 27.3291 89.9073 27.4578 90.2717 27.6988C90.636 27.9398 90.92 28.2824 91.0877 28.6833C91.2554 29.0841 91.2992 29.5251 91.2137 29.9507C91.1282 30.3762 90.9172 30.767 90.6074 31.0738C90.2975 31.3806 89.9028 31.5895 89.473 31.6741C89.0432 31.7588 88.5977 31.7153 88.1929 31.5493C87.7881 31.3833 87.442 31.1021 87.1986 30.7414C86.9551 30.3807 86.8252 29.9566 86.8252 29.5227C86.8242 29.2344 86.8808 28.9487 86.9918 28.6821C87.1028 28.4155 87.2659 28.1733 87.4719 27.9694C87.6778 27.7655 87.9225 27.6039 88.1917 27.4941C88.461 27.3842 88.7495 27.3281 89.0408 27.3291" fill="#FECA0A"/>
<path fill-rule="evenodd" clip-rule="evenodd" d="M95.7796 25.506C96.5823 25.5045 97.3673 25.7388 98.0355 26.1792C98.7036 26.6196 99.2248 27.2464 99.533 27.9802C99.8412 28.714 99.9226 29.5218 99.7669 30.3015C99.6113 31.0811 99.2255 31.7975 98.6585 32.36C98.0914 32.9224 97.3686 33.3057 96.5815 33.4613C95.7943 33.6169 94.9783 33.5378 94.2365 33.234C93.4948 32.9303 92.8608 32.4155 92.4147 31.7548C91.9686 31.0941 91.7305 30.3172 91.7305 29.5225C91.7295 28.9954 91.8335 28.4733 92.0365 27.986C92.2395 27.4988 92.5376 27.0559 92.9137 26.6829C93.2898 26.3098 93.7365 26.0138 94.2283 25.8119C94.72 25.6099 95.2472 25.506 95.7796 25.506" fill="#FECA0A"/>
<path fill-rule="evenodd" clip-rule="evenodd" d="M103.945 26.1036C104.629 26.1036 105.298 26.3047 105.866 26.6814C106.435 27.0581 106.877 27.5934 107.138 28.2195C107.399 28.8456 107.466 29.5342 107.331 30.198C107.195 30.8618 106.864 31.471 106.379 31.9482C105.894 32.4255 105.276 32.7493 104.605 32.8786C103.934 33.008 103.239 32.937 102.608 32.6748C101.977 32.4125 101.44 31.9708 101.063 31.4055C100.686 30.8403 100.488 30.1771 100.492 29.4999C100.492 29.0509 100.582 28.6063 100.755 28.1915C100.929 27.7767 101.183 27.3998 101.504 27.0823C101.824 26.7648 102.205 26.513 102.624 26.3412C103.043 26.1694 103.492 26.0809 103.945 26.0809" fill="#FECA0A"/>
<path fill-rule="evenodd" clip-rule="evenodd" d="M111.12 26.3987C111.745 26.3987 112.356 26.5825 112.875 26.9268C113.395 27.2711 113.799 27.7603 114.037 28.3325C114.275 28.9046 114.337 29.5339 114.213 30.1405C114.089 30.7471 113.787 31.3037 113.343 31.7397C112.899 32.1757 112.335 32.4714 111.722 32.5893C111.108 32.7073 110.473 32.6422 109.897 32.4023C109.321 32.1623 108.829 31.7584 108.486 31.2417C108.142 30.725 107.96 30.1188 107.965 29.5C107.964 29.0894 108.045 28.6828 108.203 28.3033C108.361 27.9238 108.594 27.579 108.887 27.2888C109.18 26.9985 109.528 26.7684 109.912 26.6118C110.295 26.4551 110.706 26.375 111.12 26.376" fill="#FECA0A"/>
<path fill-rule="evenodd" clip-rule="evenodd" d="M117.202 27.2306C117.668 27.2307 118.123 27.3684 118.51 27.6259C118.897 27.8835 119.197 28.2494 119.373 28.6768C119.549 29.1042 119.592 29.5738 119.497 30.0256C119.402 30.4775 119.174 30.8911 118.84 31.2136C118.507 31.5362 118.084 31.7531 117.625 31.8366C117.167 31.9201 116.694 31.8665 116.266 31.6826C115.839 31.4987 115.476 31.1929 115.225 30.8041C114.974 30.4153 114.845 29.9612 114.856 29.4998C114.868 28.8925 115.121 28.3143 115.56 27.8898C115.998 27.4652 116.588 27.2285 117.202 27.2306" fill="#FECA0A"/>
<path fill-rule="evenodd" clip-rule="evenodd" d="M74.4039 27.8738C74.7343 27.8738 75.0572 27.9711 75.3316 28.1533C75.6059 28.3355 75.8193 28.5944 75.9447 28.8971C76.07 29.1997 76.1017 29.5324 76.0355 29.8529C75.9694 30.1734 75.8085 30.4671 75.5732 30.6968C75.338 30.9265 75.0391 31.0817 74.7146 31.1427C74.39 31.2038 74.0544 31.1679 73.7505 31.0396C73.4466 30.9113 73.1881 30.6964 73.0079 30.4223C72.8277 30.1481 72.7339 29.8271 72.7384 29.5C72.7384 29.0627 72.9139 28.6433 73.2262 28.334C73.5386 28.0248 73.9622 27.8511 74.4039 27.8511" fill="#FECA0A"/>
<path fill-rule="evenodd" clip-rule="evenodd" d="M78.6512 27.5333C79.0499 27.5318 79.44 27.6478 79.7719 27.8665C80.1038 28.0852 80.3625 28.3968 80.5151 28.7615C80.6676 29.1262 80.7071 29.5275 80.6286 29.9145C80.5501 30.3015 80.357 30.6567 80.074 30.9347C79.791 31.2128 79.4309 31.4012 79.0394 31.476C78.6479 31.5508 78.2428 31.5086 77.8757 31.3547C77.5085 31.2009 77.1958 30.9424 76.9775 30.6121C76.7592 30.2818 76.645 29.8947 76.6495 29.5C76.6485 29.2391 76.6996 28.9806 76.7997 28.7393C76.8999 28.4979 77.0471 28.2786 77.2331 28.0937C77.4191 27.9089 77.6401 27.7623 77.8834 27.6622C78.1268 27.5621 78.3877 27.5106 78.6512 27.5106" fill="#FECA0A"/>
<path fill-rule="evenodd" clip-rule="evenodd" d="M121.495 28.0704C121.788 28.0629 122.076 28.1423 122.323 28.2982C122.569 28.4542 122.763 28.6796 122.88 28.9456C122.996 29.2116 123.029 29.5059 122.975 29.7907C122.921 30.0755 122.782 30.3377 122.576 30.5437C122.37 30.7497 122.107 30.89 121.82 30.9466C121.533 31.0032 121.235 30.9735 120.965 30.8612C120.695 30.749 120.466 30.5594 120.305 30.3168C120.145 30.0743 120.062 29.7898 120.067 29.5001C120.066 29.3091 120.103 29.1198 120.176 28.9431C120.25 28.7664 120.358 28.6059 120.494 28.4709C120.63 28.3358 120.792 28.2289 120.971 28.1563C121.149 28.0836 121.341 28.0467 121.533 28.0477" fill="#FECA0A"/>
<path d="M27.6466 23.5852L25.4291 25.5263C24.6506 24.4515 23.8578 23.914 23.0508 23.914C22.658 23.914 22.3366 24.0201 22.0866 24.2322C21.8366 24.4373 21.7116 24.6707 21.7116 24.9323C21.7116 25.1939 21.8009 25.4414 21.9795 25.6748C22.2223 25.9859 22.9543 26.6541 24.1756 27.6795C25.3184 28.627 26.0111 29.2245 26.254 29.472C26.861 30.0801 27.2895 30.6635 27.5395 31.2221C27.7966 31.7737 27.9252 32.3783 27.9252 33.0359C27.9252 34.3158 27.4788 35.3729 26.5861 36.2073C25.6933 37.0417 24.5292 37.4589 23.0936 37.4589C21.9723 37.4589 20.9939 37.1867 20.1583 36.6422C19.3298 36.0977 18.6192 35.2421 18.0264 34.0754L20.5439 32.5692C21.301 33.9481 22.1723 34.6375 23.1579 34.6375C23.6721 34.6375 24.1042 34.489 24.4542 34.192C24.8041 33.8951 24.9791 33.5521 24.9791 33.1632C24.9791 32.8096 24.847 32.4561 24.5827 32.1025C24.3185 31.7489 23.7364 31.208 22.8365 30.4797C21.1224 29.0937 20.0154 28.0259 19.5155 27.2764C19.0155 26.5198 18.7656 25.7667 18.7656 25.0171C18.7656 23.9353 19.1798 23.0089 20.0083 22.2382C20.8439 21.4603 21.8723 21.0714 23.0936 21.0714C23.8792 21.0714 24.6256 21.2517 25.3326 21.6124C26.0468 21.973 26.8182 22.6306 27.6466 23.5852Z" fill="#003042"/>
<path d="M30.6998 21.4639H33.7102V31.5616C33.7102 32.4313 33.7852 33.0465 33.9352 33.4071C34.0923 33.7678 34.3458 34.0577 34.6958 34.2769C35.0529 34.489 35.4814 34.5951 35.9814 34.5951C36.5099 34.5951 36.9634 34.4749 37.3419 34.2345C37.7276 33.9941 37.9918 33.69 38.1347 33.3223C38.2847 32.9475 38.3596 32.2369 38.3596 31.1903V21.4639H41.37V30.766C41.37 32.3359 41.2807 33.4248 41.1022 34.0329C40.9236 34.6411 40.5808 35.228 40.0737 35.7937C39.5738 36.3594 38.9953 36.7801 38.3382 37.0559C37.6812 37.3246 36.917 37.4589 36.0456 37.4589C34.9029 37.4589 33.9066 37.2008 33.0567 36.6846C32.214 36.1614 31.6105 35.5108 31.2462 34.733C30.882 33.9481 30.6998 32.6258 30.6998 30.766V21.4639Z" fill="#003042"/>
<path d="M44.8732 21.4639H47.7442L54.5041 31.7313V21.4639H57.5038V37.0665H54.622L47.8728 26.8309V37.0665H44.8732V21.4639Z" fill="#003042"/>
<path fill-rule="evenodd" clip-rule="evenodd" d="M95.8304 40.4142L93.4085 54.2943H95.1275L97.0527 43.228L100.789 54.2943H102.553L106.312 43.2204L108.199 54.2943H109.888L107.535 40.4142H105.594L101.675 51.9721L97.7785 40.4142H95.8304ZM83.1864 41.7681C83.9156 41.7574 84.639 41.8979 85.31 42.1806C85.9811 42.4633 86.5849 42.8819 87.0828 43.4095C88.1016 44.4873 88.6685 45.9083 88.6685 47.3845C88.6685 48.8607 88.1016 50.2817 87.0828 51.3594C86.5931 51.8753 86.001 52.2854 85.3436 52.564C84.6863 52.8425 83.9779 52.9835 83.2628 52.9781C81.9753 52.99 80.725 52.5506 79.7332 51.7376C79.0835 51.2188 78.5654 50.5566 78.2205 49.8039C77.8755 49.0513 77.7134 48.2292 77.7469 47.4034C77.7236 46.6613 77.8509 45.9222 78.1213 45.2297C78.3916 44.5372 78.7994 43.9054 79.3207 43.3717C79.8195 42.8562 80.4201 42.4478 81.0851 42.1719C81.7502 41.896 82.4655 41.7586 83.1864 41.7681V41.7681ZM83.2323 40.036C81.9438 40.0391 80.6786 40.3759 79.5623 41.0128C78.4459 41.6497 77.5172 42.5646 76.8683 43.6667C76.0692 45.0639 75.7468 46.6792 75.9492 48.2723C76.1515 49.8654 76.8677 51.3513 77.9914 52.5092C78.6699 53.1898 79.4774 53.7313 80.3676 54.1024C81.2578 54.4736 82.2133 54.6672 83.1792 54.6721C84.1451 54.677 85.1025 54.4932 85.9965 54.1311C86.8905 53.769 87.7036 53.2358 88.3892 52.5621C89.0749 51.8941 89.6161 51.095 89.9799 50.2133C90.3437 49.3317 90.5225 48.3859 90.5054 47.4336C90.5261 46.4647 90.3464 45.5018 89.9772 44.6042C89.608 43.7066 89.0572 42.8933 88.3586 42.2144C87.7024 41.5205 86.9081 40.9687 86.0258 40.5938C85.1435 40.2188 84.1924 40.0289 83.2323 40.036V40.036ZM72.697 42.4792C71.9382 41.7087 71.0318 41.0958 70.0309 40.6763C69.03 40.2567 67.9547 40.0391 66.8678 40.036C65.5288 40.0291 64.2115 40.3708 63.0479 41.0269C61.9028 41.6347 60.9486 42.5428 60.2899 43.6516C59.6475 44.7819 59.3205 46.0612 59.3425 47.358C59.3042 48.3351 59.4696 49.3095 59.8285 50.2205C60.1873 51.1315 60.7319 51.9595 61.4282 52.6529C62.1334 53.3351 62.9708 53.8691 63.8898 54.2227C64.8089 54.5762 65.7906 54.7421 66.7761 54.7103C67.8698 54.7278 68.9558 54.5271 69.9695 54.1203C70.9313 53.6779 71.8118 53.0797 72.5747 52.3503L71.3676 51.0947C70.7664 51.6722 70.0751 52.1498 69.3202 52.5092C68.4546 52.8774 67.5166 53.0489 66.5752 53.0109C65.6339 52.973 64.7131 52.7266 63.8806 52.2898C63.0165 51.8199 62.3021 51.1204 61.8179 50.2702C61.3139 49.3809 61.0507 48.3777 61.0539 47.358C61.0467 46.6197 61.1885 45.8874 61.4711 45.2041C61.7536 44.5208 62.1711 43.9002 62.6992 43.3788C63.2272 42.8574 63.8551 42.4457 64.546 42.1678C65.2369 41.8899 65.9769 41.7515 66.7226 41.7606C67.5941 41.7537 68.4585 41.9172 69.266 42.2417C70.0736 42.5662 70.8085 43.0453 71.4288 43.6516L72.697 42.4792ZM49.0135 40.4142V54.2943H56.1873V52.5621H50.8394V47.5698H56.1873V45.9208H50.8394V42.1388H56.1873V40.4142H49.0135ZM39.563 40.4142V54.2943H45.5756V52.6453H41.3737V40.4142H39.563ZM28.5082 40.4142V54.2943H35.682V52.5621H30.3341V47.5698H35.682V45.9208H30.3341V42.1388H35.682V40.4142H28.5082ZM18.0264 40.4142V42.1388H20.7461V54.2413H22.595V42.1388H25.33V40.4142H18.0264Z" fill="#003042"/>
</svg>
