<svg width="110" height="42" viewBox="0 0 110 42" fill="none" xmlns="http://www.w3.org/2000/svg">
<path fill-rule="evenodd" clip-rule="evenodd" d="M28.3059 0C32.4593 0 36.5194 1.23163 39.9729 3.53914C43.4263 5.84665 46.1179 9.1264 47.7074 12.9636C49.2968 16.8009 49.7127 21.0233 48.9024 25.0969C48.0921 29.1705 46.092 32.9123 43.1551 35.8492C40.2182 38.7861 36.4764 40.7862 32.4028 41.5965C28.3292 42.4068 24.1068 41.9909 20.2696 40.4015C16.4323 38.812 13.1526 36.1204 10.845 32.667C8.53754 29.2135 7.30591 25.1534 7.30591 21C7.30591 15.4305 9.5184 10.089 13.4567 6.15076C17.3949 2.21249 22.7364 0 28.3059 0" fill="#FFCC00"/>
<path d="M29.2326 26.8476C41.9368 26.8476 52.2356 24.2368 52.2356 21.0161C52.2356 17.7954 41.9368 15.1846 29.2326 15.1846C16.5283 15.1846 6.22949 17.7954 6.22949 21.0161C6.22949 24.2368 16.5283 26.8476 29.2326 26.8476Z" stroke="#AEBDCB" stroke-width="0.150769" stroke-miterlimit="22.93"/>
<path d="M30.3739 27.5962C44.1012 27.5962 55.2293 24.6502 55.2293 21.0162C55.2293 17.3821 44.1012 14.4362 30.3739 14.4362C16.6467 14.4362 5.51855 17.3821 5.51855 21.0162C5.51855 24.6502 16.6467 27.5962 30.3739 27.5962Z" stroke="#AEBDCB" stroke-width="0.150769" stroke-miterlimit="22.93"/>
<path d="M31.8117 28.3499C46.7315 28.3499 58.8263 25.0665 58.8263 21.0161C58.8263 16.9657 46.7315 13.6823 31.8117 13.6823C16.892 13.6823 4.79712 16.9657 4.79712 21.0161C4.79712 25.0665 16.892 28.3499 31.8117 28.3499Z" stroke="#AEBDCB" stroke-width="0.150769" stroke-miterlimit="22.93"/>
<path d="M33.3139 12.7561C49.4677 12.7561 62.5523 16.4553 62.5523 21.0161C62.5523 25.5769 49.4623 29.2707 33.3139 29.2707C17.1654 29.2707 4.08081 25.5715 4.08081 20.9999C4.08081 16.4284 17.1708 12.7561 33.3139 12.7561Z" stroke="#AEBDCB" stroke-width="0.150769" stroke-miterlimit="22.93"/>
<path d="M35.3763 30.1861C53.0082 30.1861 67.3017 26.1022 67.3017 21.0645C67.3017 16.0268 53.0082 11.943 35.3763 11.943C17.7444 11.943 3.45093 16.0268 3.45093 21.0645C3.45093 26.1022 17.7444 30.1861 35.3763 30.1861Z" stroke="#AEBDCB" stroke-width="0.150769" stroke-miterlimit="22.93"/>
<path d="M37.853 31.3493C57.296 31.3493 73.0577 26.723 73.0577 21.0162C73.0577 15.3094 57.296 10.6831 37.853 10.6831C18.4101 10.6831 2.64844 15.3094 2.64844 21.0162C2.64844 26.723 18.4101 31.3493 37.853 31.3493Z" stroke="#AEBDCB" stroke-width="0.150769" stroke-miterlimit="22.93"/>
<path d="M40.0224 32.5068C61.0593 32.5068 78.1132 27.3622 78.1132 21.016C78.1132 14.6699 61.0593 9.52527 40.0224 9.52527C18.9855 9.52527 1.93164 14.6699 1.93164 21.016C1.93164 27.3622 18.9855 32.5068 40.0224 32.5068Z" stroke="#AEBDCB" stroke-width="0.150769" stroke-miterlimit="22.93"/>
<path d="M41.8055 33.7723C64.2253 33.7723 82.4002 28.0612 82.4002 21.0162C82.4002 13.9711 64.2253 8.26001 41.8055 8.26001C19.3858 8.26001 1.21094 13.9711 1.21094 21.0162C1.21094 28.0612 19.3858 33.7723 41.8055 33.7723Z" stroke="#AEBDCB" stroke-width="0.150769" stroke-miterlimit="22.93"/>
<path d="M42.9631 35.0431C66.4148 35.0431 85.4261 28.763 85.4261 21.0162C85.4261 13.2693 66.4148 6.98926 42.9631 6.98926C19.5114 6.98926 0.5 13.2693 0.5 21.0162C0.5 28.763 19.5114 35.0431 42.9631 35.0431Z" stroke="#AEBDCB" stroke-width="0.150769" stroke-miterlimit="22.93"/>
<path fill-rule="evenodd" clip-rule="evenodd" d="M28.3059 0C33.8754 0 39.2169 2.21249 43.1551 6.15076C47.0934 10.089 49.3059 15.4305 49.3059 21C49.3059 21.0915 49.3059 21.1885 49.3059 21.2854H7.30591C7.30591 21.1885 7.30591 21.0915 7.30591 21C7.30591 15.4305 9.5184 10.089 13.4567 6.15076C17.3949 2.21249 22.7364 0 28.3059 0" fill="#FFCC00"/>
<path fill-rule="evenodd" clip-rule="evenodd" d="M58.8257 19.2715C59.1715 19.2715 59.5094 19.3743 59.7967 19.5667C60.0839 19.7591 60.3075 20.0326 60.439 20.3523C60.5706 20.672 60.6042 21.0236 60.5356 21.3625C60.4669 21.7013 60.2992 22.0122 60.0535 22.2555C59.8079 22.4988 59.4956 22.6637 59.1561 22.7292C58.8166 22.7947 58.4653 22.7578 58.1468 22.6233C57.8283 22.4887 57.557 22.2626 57.3673 21.9736C57.1775 21.6846 57.0779 21.3457 57.0811 21C57.0811 20.5373 57.2649 20.0935 57.5921 19.7664C57.9193 19.4392 58.363 19.2554 58.8257 19.2554" fill="#FFCC00"/>
<path fill-rule="evenodd" clip-rule="evenodd" d="M62.5518 19.4546C62.8606 19.4546 63.1625 19.5462 63.4193 19.7178C63.6761 19.8893 63.8763 20.1332 63.9945 20.4186C64.1126 20.7039 64.1436 21.0179 64.0833 21.3208C64.0231 21.6237 63.8743 21.9019 63.656 22.1203C63.4376 22.3387 63.1593 22.4874 62.8564 22.5477C62.5535 22.6079 62.2395 22.577 61.9542 22.4588C61.6689 22.3406 61.425 22.1405 61.2534 21.8837C61.0818 21.6269 60.9902 21.325 60.9902 21.0161C60.9895 20.8109 61.0294 20.6075 61.1077 20.4177C61.1859 20.2279 61.3009 20.0555 61.446 19.9104C61.5912 19.7652 61.7636 19.6502 61.9534 19.572C62.1431 19.4938 62.3465 19.4539 62.5518 19.4546" fill="#FFCC00"/>
<path fill-rule="evenodd" clip-rule="evenodd" d="M67.3014 18.1569C67.8671 18.1558 68.4204 18.3226 68.8913 18.6361C69.3622 18.9496 69.7295 19.3958 69.9468 19.9182C70.164 20.4405 70.2214 21.0156 70.1117 21.5706C70.002 22.1256 69.7301 22.6356 69.3304 23.036C68.9308 23.4364 68.4213 23.7092 67.8665 23.82C67.3118 23.9307 66.7366 23.8744 66.2138 23.6582C65.691 23.4419 65.2442 23.0755 64.9298 22.6052C64.6153 22.1348 64.4475 21.5818 64.4475 21.0161C64.4468 20.6409 64.5201 20.2692 64.6632 19.9223C64.8063 19.5755 65.0164 19.2602 65.2815 18.9946C65.5466 18.7291 65.8614 18.5184 66.208 18.3746C66.5546 18.2309 66.9261 18.1569 67.3014 18.1569" fill="#FFCC00"/>
<path fill-rule="evenodd" clip-rule="evenodd" d="M73.0569 18.5823C73.539 18.5823 74.0102 18.7255 74.4108 18.9936C74.8114 19.2618 75.1233 19.6429 75.307 20.0885C75.4908 20.5342 75.538 21.0244 75.4428 21.497C75.3475 21.9695 75.1141 22.4031 74.7721 22.7429C74.4301 23.0826 73.995 23.3131 73.5218 23.4052C73.0486 23.4973 72.5587 23.4468 72.1143 23.2601C71.6699 23.0734 71.2909 22.7589 71.0254 22.3566C70.7599 21.9542 70.6199 21.4821 70.6231 21C70.6231 20.6804 70.686 20.3639 70.8084 20.0686C70.9307 19.7733 71.1099 19.505 71.336 19.279C71.562 19.053 71.8303 18.8737 72.1256 18.7514C72.4208 18.6291 72.7373 18.5662 73.0569 18.5662" fill="#FFCC00"/>
<path fill-rule="evenodd" clip-rule="evenodd" d="M78.1138 18.7923C78.5543 18.7923 78.9849 18.9231 79.351 19.1682C79.717 19.4133 80.002 19.7616 80.1699 20.1689C80.3377 20.5762 80.3808 21.0241 80.2937 21.456C80.2065 21.8878 79.9931 22.284 79.6805 22.5943C79.3679 22.9047 78.9701 23.1152 78.5377 23.1992C78.1052 23.2832 77.6576 23.2368 77.2515 23.066C76.8454 22.8952 76.4993 22.6077 76.2569 22.2398C76.0145 21.872 75.8868 21.4405 75.89 21C75.8892 20.7077 75.9463 20.4182 76.0578 20.1481C76.1693 19.878 76.3331 19.6325 76.5397 19.4259C76.7464 19.2193 76.9918 19.0555 77.2619 18.944C77.5321 18.8325 77.8216 18.7754 78.1138 18.7761" fill="#FFCC00"/>
<path fill-rule="evenodd" clip-rule="evenodd" d="M82.3996 19.3845C82.7281 19.3846 83.0492 19.4826 83.3218 19.666C83.5944 19.8493 83.8062 20.1098 83.9301 20.414C84.0541 20.7183 84.0845 21.0526 84.0176 21.3742C83.9507 21.6959 83.7895 21.9903 83.5545 22.2199C83.3195 22.4495 83.0215 22.6039 82.6984 22.6634C82.3753 22.7228 82.0418 22.6847 81.7404 22.5538C81.4391 22.4228 81.1836 22.2051 81.0066 21.9284C80.8296 21.6516 80.739 21.3284 80.7465 20.9999C80.755 20.5676 80.9331 20.156 81.2423 19.8538C81.5516 19.5516 81.9672 19.383 82.3996 19.3845" fill="#FFCC00"/>
<path fill-rule="evenodd" clip-rule="evenodd" d="M52.2355 19.8423C52.4683 19.8423 52.6959 19.9116 52.8893 20.0413C53.0827 20.171 53.2331 20.3553 53.3214 20.5708C53.4098 20.7862 53.4321 21.0231 53.3854 21.2512C53.3388 21.4793 53.2254 21.6884 53.0596 21.8519C52.8938 22.0154 52.6832 22.1259 52.4544 22.1694C52.2257 22.2129 51.9892 22.1873 51.775 22.096C51.5608 22.0046 51.3786 21.8517 51.2516 21.6565C51.1245 21.4614 51.0584 21.2328 51.0616 21C51.0616 20.6887 51.1853 20.3901 51.4054 20.17C51.6256 19.9498 51.9242 19.8262 52.2355 19.8262" fill="#FFCC00"/>
<path fill-rule="evenodd" clip-rule="evenodd" d="M55.229 19.6C55.51 19.599 55.7849 19.6815 56.0189 19.8372C56.2528 19.9929 56.4351 20.2147 56.5427 20.4743C56.6502 20.7339 56.678 21.0196 56.6227 21.2951C56.5673 21.5706 56.4313 21.8234 56.2318 22.0214C56.0323 22.2193 55.7785 22.3534 55.5026 22.4067C55.2267 22.4599 54.9412 22.4299 54.6824 22.3204C54.4236 22.2108 54.2032 22.0268 54.0494 21.7917C53.8955 21.5566 53.815 21.281 53.8182 21C53.8175 20.8143 53.8535 20.6303 53.924 20.4585C53.9946 20.2867 54.0984 20.1305 54.2295 19.999C54.3606 19.8674 54.5163 19.763 54.6879 19.6918C54.8594 19.6205 55.0433 19.5839 55.229 19.5839" fill="#FFCC00"/>
<path fill-rule="evenodd" clip-rule="evenodd" d="M85.426 19.9824C85.6322 19.977 85.8353 20.0335 86.0092 20.1445C86.1831 20.2555 86.3197 20.416 86.4016 20.6053C86.4836 20.7947 86.507 21.0042 86.4688 21.2069C86.4307 21.4097 86.3328 21.5964 86.1877 21.743C86.0426 21.8896 85.857 21.9895 85.6547 22.0298C85.4523 22.0701 85.2426 22.0489 85.0524 21.969C84.8622 21.8891 84.7003 21.7542 84.5874 21.5815C84.4745 21.4088 84.4159 21.2063 84.4191 21C84.4184 20.8641 84.4446 20.7293 84.4963 20.6036C84.548 20.4778 84.6241 20.3636 84.7203 20.2674C84.8164 20.1713 84.9307 20.0951 85.0564 20.0434C85.1822 19.9917 85.3169 19.9655 85.4529 19.9662" fill="#FFCC00"/>
<path d="M19.2805 16.7895L17.7175 18.1713C17.1688 17.4061 16.6101 17.0236 16.0412 17.0236C15.7644 17.0236 15.5379 17.0991 15.3617 17.2501C15.1855 17.3961 15.0974 17.5622 15.0974 17.7484C15.0974 17.9347 15.1603 18.1109 15.2862 18.277C15.4573 18.4985 15.9733 18.9741 16.8341 19.704C17.6395 20.3786 18.1277 20.8039 18.2989 20.9801C18.7267 21.413 19.0288 21.8283 19.2049 22.2259C19.3862 22.6186 19.4768 23.049 19.4768 23.5171C19.4768 24.4282 19.1622 25.1807 18.5329 25.7747C17.9037 26.3687 17.0832 26.6657 16.0714 26.6657C15.2811 26.6657 14.5915 26.4719 14.0026 26.0843C13.4187 25.6967 12.9178 25.0876 12.5 24.2571L14.2744 23.1849C14.808 24.1664 15.4221 24.6572 16.1167 24.6572C16.4792 24.6572 16.7837 24.5515 17.0304 24.3401C17.277 24.1287 17.4003 23.8846 17.4003 23.6077C17.4003 23.356 17.3072 23.1043 17.121 22.8526C16.9347 22.601 16.5245 22.2159 15.8902 21.6974C14.6821 20.7108 13.9019 19.9507 13.5495 19.4171C13.1972 18.8785 13.021 18.3424 13.021 17.8088C13.021 17.0387 13.3129 16.3792 13.8969 15.8306C14.4858 15.2769 15.2107 15 16.0714 15C16.6252 15 17.1512 15.1284 17.6495 15.3851C18.1529 15.6418 18.6965 16.1099 19.2805 16.7895Z" fill="#171819"/>
<path d="M21.4324 15.2794H23.5541V22.4676C23.5541 23.0867 23.607 23.5246 23.7127 23.7814C23.8234 24.0381 24.0021 24.2445 24.2488 24.4005C24.5004 24.5515 24.8025 24.627 25.1548 24.627C25.5273 24.627 25.847 24.5415 26.1138 24.3703C26.3856 24.1992 26.5718 23.9827 26.6725 23.721C26.7782 23.4542 26.8311 22.9483 26.8311 22.2033V15.2794H28.9528V21.9013C28.9528 23.0188 28.8899 23.794 28.764 24.2269C28.6382 24.6598 28.3966 25.0776 28.0392 25.4803C27.6868 25.883 27.2791 26.1825 26.816 26.3788C26.3529 26.5701 25.8143 26.6657 25.2001 26.6657C24.3947 26.6657 23.6925 26.482 23.0935 26.1145C22.4995 25.742 22.0742 25.2789 21.8175 24.7252C21.5607 24.1664 21.4324 23.2251 21.4324 21.9013V15.2794Z" fill="#171819"/>
<path d="M31.4218 15.2794H33.4454L38.2098 22.5884V15.2794H40.324V26.3863H38.2929L33.536 19.1V26.3863H31.4218V15.2794Z" fill="#171819"/>
<path fill-rule="evenodd" clip-rule="evenodd" d="M99.3369 16.2694L97.63 26.1501H98.8415L100.198 18.2724L102.832 26.1501H104.075L106.725 18.2671L108.055 26.1501H109.245L107.586 16.2694H106.218L103.456 24.4971L100.71 16.2694H99.3369ZM90.4254 17.2332C90.9393 17.2256 91.4492 17.3256 91.9221 17.5268C92.3951 17.7281 92.8207 18.0261 93.1715 18.4017C93.8896 19.1689 94.2892 20.1804 94.2892 21.2313C94.2892 22.2821 93.8896 23.2937 93.1715 24.0609C92.8264 24.4282 92.4091 24.7201 91.9458 24.9184C91.4825 25.1167 90.9832 25.2171 90.4792 25.2132C89.5718 25.2217 88.6905 24.9089 87.9915 24.3301C87.5336 23.9608 87.1684 23.4894 86.9253 22.9536C86.6822 22.4178 86.5679 21.8326 86.5915 21.2447C86.5751 20.7165 86.6649 20.1903 86.8554 19.6974C87.0459 19.2044 87.3334 18.7547 87.7008 18.3747C88.0523 18.0078 88.4756 17.717 88.9444 17.5207C89.4131 17.3243 89.9172 17.2264 90.4254 17.2332V17.2332ZM90.4577 16.0001C89.5496 16.0024 88.6579 16.2421 87.871 16.6955C87.0842 17.1489 86.4296 17.8002 85.9723 18.5847C85.4091 19.5794 85.1819 20.7292 85.3245 21.8633C85.4671 22.9974 85.9719 24.0552 86.7638 24.8794C87.2421 25.3639 87.8112 25.7493 88.4386 26.0136C89.0661 26.2778 89.7395 26.4156 90.4202 26.4191C91.101 26.4226 91.7758 26.2917 92.4059 26.034C93.0361 25.7762 93.6091 25.3967 94.0923 24.9171C94.5756 24.4415 94.957 23.8727 95.2135 23.245C95.4699 22.6174 95.5959 21.9442 95.5838 21.2663C95.5985 20.5765 95.4718 19.8911 95.2115 19.2521C94.9513 18.6132 94.5631 18.0342 94.0708 17.5509C93.6082 17.0569 93.0484 16.6641 92.4266 16.3972C91.8047 16.1303 91.1344 15.9951 90.4577 16.0001V16.0001ZM83.0323 17.7394C82.4975 17.1909 81.8587 16.7546 81.1532 16.4559C80.4478 16.1573 79.6899 16.0023 78.9238 16.0001C77.9801 15.9953 77.0516 16.2385 76.2315 16.7055C75.4245 17.1382 74.752 17.7846 74.2877 18.574C73.8349 19.3786 73.6044 20.2893 73.62 21.2124C73.593 21.908 73.7096 22.6016 73.9625 23.2501C74.2154 23.8986 74.5992 24.4881 75.09 24.9817C75.587 25.4673 76.1772 25.8475 76.8249 26.0992C77.4727 26.3508 78.1647 26.4689 78.8592 26.4463C79.6301 26.4587 80.3955 26.3159 81.11 26.0263C81.7879 25.7113 82.4084 25.2855 82.9461 24.7663L82.0954 23.8724C81.6717 24.2835 81.1844 24.6235 80.6523 24.8794C80.0422 25.1415 79.3811 25.2636 78.7176 25.2366C78.0542 25.2095 77.4052 25.0341 76.8185 24.7232C76.2094 24.3887 75.7059 23.8908 75.3646 23.2855C75.0094 22.6525 74.8239 21.9383 74.8261 21.2124C74.8211 20.6869 74.9211 20.1656 75.1202 19.6791C75.3193 19.1927 75.6136 18.7509 75.9858 18.3798C76.3579 18.0086 76.8005 17.7155 77.2874 17.5177C77.7744 17.3199 78.296 17.2213 78.8215 17.2278C79.4358 17.223 80.045 17.3394 80.6141 17.5704C81.1833 17.8014 81.7013 18.1424 82.1385 18.574L83.0323 17.7394ZM66.34 16.2694V26.1501H71.3961V24.9171H67.6269V21.3632H71.3961V20.1894H67.6269V17.4971H71.3961V16.2694H66.34ZM59.6792 16.2694V26.1501H63.9169V24.9763H60.9554V16.2694H59.6792ZM51.8877 16.2694V26.1501H56.9438V24.9171H53.1746V21.3632H56.9438V20.1894H53.1746V17.4971H56.9438V16.2694H51.8877ZM44.5 16.2694V17.4971H46.4169V26.1124H47.72V17.4971H49.6477V16.2694H44.5Z" fill="#171819"/>
</svg>
