<svg width="153" height="135" viewBox="0 0 153 135" fill="none" xmlns="http://www.w3.org/2000/svg">
<g filter="url(#filter0_d_718_6598)">
<ellipse rx="22.9783" ry="23.1111" transform="matrix(0.86612 -0.499836 0.500164 0.865931 68.6821 54.1286)" fill="white"/>
<path d="M99.0911 41.0874C101.095 45.6765 88.6101 55.5588 71.2046 63.1602C53.7992 70.7616 38.0646 73.2037 36.0605 68.6147C34.0563 64.0257 46.5415 54.1434 63.947 46.5419C81.3524 38.9405 97.087 36.4984 99.0911 41.0874ZM39.13 67.2741C40.939 71.4162 55.141 69.212 70.8512 62.3509C86.5613 55.4898 97.8305 46.5701 96.0216 42.428C94.2126 38.286 80.0106 40.4902 64.3004 47.3512C48.5903 54.2123 37.3211 63.1321 39.13 67.2741Z" fill="url(#paint0_linear_718_6598)"/>
<path d="M87.9787 41.8781C85.1068 36.906 80.2711 33.3387 74.5354 31.9609C68.7997 30.5832 62.6339 31.5079 57.3944 34.5316C52.1548 37.5554 48.2708 42.4304 46.5966 48.0844C44.9225 53.7383 45.5953 59.708 48.4673 64.6801L68.223 53.2791L87.9787 41.8781Z" fill="white"/>
<circle cx="43.7105" cy="74.3096" r="1.7267" transform="rotate(-15 43.7105 74.3096)" fill="url(#paint1_linear_718_6598)"/>
</g>
<defs>
<filter id="filter0_d_718_6598" x="0.849609" y="0.050415" width="151.453" height="134.156" filterUnits="userSpaceOnUse" color-interpolation-filters="sRGB">
<feFlood flood-opacity="0" result="BackgroundImageFix"/>
<feColorMatrix in="SourceAlpha" type="matrix" values="0 0 0 0 0 0 0 0 0 0 0 0 0 0 0 0 0 0 127 0" result="hardAlpha"/>
<feMorphology radius="5" operator="dilate" in="SourceAlpha" result="effect1_dropShadow_718_6598"/>
<feOffset dx="9" dy="13"/>
<feGaussianBlur stdDeviation="19.5"/>
<feComposite in2="hardAlpha" operator="out"/>
<feColorMatrix type="matrix" values="0 0 0 0 0.984314 0 0 0 0 0.780392 0 0 0 0 0.027451 0 0 0 0.25 0"/>
<feBlend mode="normal" in2="BackgroundImageFix" result="effect1_dropShadow_718_6598"/>
<feBlend mode="normal" in="SourceGraphic" in2="effect1_dropShadow_718_6598" result="shape"/>
</filter>
<linearGradient id="paint0_linear_718_6598" x1="-9.97304" y1="75.0553" x2="8.1033" y2="4.72835" gradientUnits="userSpaceOnUse">
<stop stop-color="#FECA0A"/>
<stop offset="1" stop-color="#FECA0A" stop-opacity="0"/>
</linearGradient>
<linearGradient id="paint1_linear_718_6598" x1="39.7362" y1="71.925" x2="45.0521" y2="70.1316" gradientUnits="userSpaceOnUse">
<stop stop-color="#FECA0A"/>
<stop offset="1" stop-color="#FECA0A" stop-opacity="0"/>
</linearGradient>
</defs>
</svg>
