<svg width="70" height="70" viewBox="0 0 70 70" fill="none" xmlns="http://www.w3.org/2000/svg">
<circle cx="35" cy="35" r="35" fill="#FECC00"/>
<path d="M23.8406 30.928V40.1101C23.8406 41.3305 22.8819 42.306 21.6607 42.306C20.4484 42.306 19.2754 41.3229 19.2754 40.1101V30.928C19.2754 29.7305 20.4484 28.7473 21.6607 28.7473C22.8578 28.7473 23.8406 29.7305 23.8406 30.928V30.928ZM24.6966 43.3767C24.6966 44.677 25.7428 45.7236 27.0426 45.7236H28.6201L28.6442 50.5684C28.6442 53.4937 33.0192 53.4709 33.0192 50.5684V45.7236H35.9676V50.5684C35.9676 53.4785 40.3667 53.4861 40.3667 50.5684V45.7236H41.9671C42.2741 45.7226 42.5779 45.6611 42.8612 45.5426C43.1444 45.4241 43.4016 45.2509 43.6179 45.033C43.8342 44.8151 44.0055 44.5566 44.122 44.2724C44.2384 43.9882 44.2978 43.6839 44.2966 43.3767V29.1533H24.6966V43.3767ZM44.3524 28.3832H24.6091C24.6091 24.9898 26.6381 22.0403 29.6498 20.5028L28.1357 17.7043C27.9138 17.3161 28.4768 17.07 28.6671 17.4023L30.204 20.2249C32.9698 18.9957 36.1489 19.0591 38.7879 20.2249L40.3172 17.4099C40.5151 17.0687 41.0705 17.3224 40.8486 17.7119L39.3344 20.5028C42.3221 22.0403 44.3511 24.991 44.3511 28.3832H44.3524ZM30.8229 23.9825C30.8229 23.7618 30.7352 23.5501 30.5792 23.3941C30.4232 23.238 30.2116 23.1503 29.991 23.1503C29.5395 23.1503 29.1832 23.5309 29.1832 23.9825C29.1832 24.4341 29.5484 24.8147 29.991 24.8147C30.4589 24.8147 30.8229 24.4341 30.8229 23.9825ZM39.8113 23.9825C39.8123 23.7654 39.7281 23.5566 39.5768 23.4009C39.4255 23.2453 39.2192 23.1553 39.0022 23.1503C38.7816 23.1503 38.57 23.238 38.414 23.3941C38.258 23.5501 38.1703 23.7618 38.1703 23.9825C38.1703 24.2032 38.258 24.4149 38.414 24.571C38.57 24.727 38.7816 24.8147 39.0022 24.8147C39.446 24.8147 39.8113 24.4341 39.8113 23.9825V23.9825ZM47.3248 28.7486C46.1277 28.7486 45.145 29.7077 45.145 30.9293V40.1114C45.145 41.3318 46.1277 42.3073 47.3248 42.3073C48.546 42.3073 49.7102 41.3241 49.7102 40.1114V30.9293C49.7102 29.7089 48.5372 28.7486 47.3248 28.7486Z" fill="#262626"/>
</svg>
