<svg width="70" height="70" viewBox="0 0 70 70" fill="none" xmlns="http://www.w3.org/2000/svg">
<circle cx="35" cy="35" r="35" fill="#FECC00"/>
<path d="M49.0713 44.9176C48.5448 46.1234 47.8944 47.2733 47.1301 48.3493C46.109 49.7822 45.2705 50.7723 44.6279 51.3234C43.6297 52.2239 42.5573 52.6872 41.4108 52.7133C40.5894 52.7133 39.5969 52.4835 38.4409 52.0165C37.2811 51.5513 36.2163 51.3234 35.241 51.3234C34.2199 51.3234 33.1248 51.5513 31.9516 52.0165C30.7804 52.4835 29.8335 52.7283 29.1091 52.7507C28.0121 52.7974 26.915 52.3229 25.8217 51.3234C25.1239 50.7256 24.2512 49.6981 23.2036 48.2447C22.0818 46.696 21.1596 44.8933 20.4371 42.8439C19.6633 40.6264 19.2754 38.4818 19.2754 36.4044C19.2754 34.0263 19.7983 31.9732 20.8459 30.2545C21.6383 28.9047 22.7711 27.7781 24.1352 26.9834C25.4804 26.1906 27.0159 25.7638 28.5844 25.7466C29.459 25.7466 30.6055 26.0119 32.0258 26.535C33.4461 27.0581 34.3587 27.3234 34.7561 27.3234C35.0565 27.3234 36.0661 27.0114 37.785 26.393C39.4068 25.8195 40.7758 25.5822 41.8976 25.6757C44.9397 25.9166 47.2232 27.0936 48.7424 29.2158C46.0235 30.8355 44.6792 33.1015 44.7058 36.0102C44.7287 38.2763 45.5672 40.1613 47.2099 41.6576C47.9362 42.3405 48.7836 42.8869 49.7102 43.2699C49.5086 43.8434 49.2957 44.3907 49.0713 44.9176V44.9176ZM42.0991 17.9583C42.0991 19.7331 41.4374 21.392 40.1236 22.9257C38.5341 24.7491 36.6137 25.8046 34.5318 25.6383C34.5045 25.4151 34.4912 25.1905 34.4918 24.9658C34.4918 23.2601 35.2448 21.4368 36.589 19.9442C37.2583 19.1895 38.1101 18.5599 39.1425 18.0592C40.173 17.566 41.1465 17.2933 42.063 17.2466C42.0877 17.4857 42.0991 17.723 42.0991 17.9583V17.9583Z" fill="#262626"/>
</svg>
