<svg width="70" height="70" viewBox="0 0 70 70" fill="none" xmlns="http://www.w3.org/2000/svg">
<circle cx="35" cy="35" r="35" fill="#FECC00"/>
<path d="M22.7944 46.582C22.7944 46.2905 22.9113 46.011 23.1194 45.8048C23.3275 45.5987 23.6097 45.4829 23.904 45.4829H46.096C46.3903 45.4829 46.6726 45.5987 46.8806 45.8048C47.0887 46.011 47.2056 46.2905 47.2056 46.582C47.2056 46.8735 47.0887 47.153 46.8806 47.3591C46.6726 47.5652 46.3903 47.681 46.096 47.681H23.904C23.6097 47.681 23.3275 47.5652 23.1194 47.3591C22.9113 47.153 22.7944 46.8735 22.7944 46.582ZM21.6848 21.3042H48.3152C48.3152 21.3042 52.7536 21.3042 52.7536 25.7003V38.8887C52.7536 38.8887 52.7536 43.2849 48.3152 43.2849H21.6848C21.6848 43.2849 17.2464 43.2849 17.2464 38.8887V25.7003C17.2464 25.7003 17.2464 21.3042 21.6848 21.3042Z" fill="#262626"/>
</svg>
